<svg width="800" height="596" viewBox="0 0 800 596" fill="none" xmlns="http://www.w3.org/2000/svg">
<mask id="mask0" mask-type="alpha" maskUnits="userSpaceOnUse" x="0" y="0" width="800" height="599">
<rect width="800" height="599" fill="#C4C4C4"/>
</mask>
<g mask="url(#mask0)">
<path d="M575.18 595.36L918.88 0.0600586" stroke="#B4B4B4" stroke-width="0.25" stroke-miterlimit="10"/>
<path d="M555.34 595.36L899.04 0.0600586" stroke="#B4B4B4" stroke-width="0.25" stroke-miterlimit="10"/>
<path d="M535.5 595.36L879.19 0.0600586" stroke="#B4B4B4" stroke-width="0.25" stroke-miterlimit="10"/>
<path d="M515.65 595.36L859.35 0.0600586" stroke="#B4B4B4" stroke-width="0.25" stroke-miterlimit="10"/>
<path d="M495.81 595.36L839.51 0.0600586" stroke="#B4B4B4" stroke-width="0.25" stroke-miterlimit="10"/>
<path d="M475.97 595.36L819.66 0.0600586" stroke="#B4B4B4" stroke-width="0.25" stroke-miterlimit="10"/>
<path d="M456.12 595.36L799.82 0.0600586" stroke="#B4B4B4" stroke-width="0.25" stroke-miterlimit="10"/>
<path d="M436.28 595.36L779.98 0.0600586" stroke="#B4B4B4" stroke-width="0.25" stroke-miterlimit="10"/>
<path d="M416.44 595.36L760.13 0.0600586" stroke="#B4B4B4" stroke-width="0.25" stroke-miterlimit="10"/>
<path d="M396.59 595.36L740.29 0.0600586" stroke="#B4B4B4" stroke-width="0.25" stroke-miterlimit="10"/>
<path d="M376.75 595.36L720.45 0.0600586" stroke="#B4B4B4" stroke-width="0.25" stroke-miterlimit="10"/>
<path d="M356.91 595.36L700.6 0.0600586" stroke="#B4B4B4" stroke-width="0.25" stroke-miterlimit="10"/>
<path d="M337.06 595.36L680.76 0.0600586" stroke="#B4B4B4" stroke-width="0.25" stroke-miterlimit="10"/>
<path d="M317.22 595.36L660.92 0.0600586" stroke="#B4B4B4" stroke-width="0.25" stroke-miterlimit="10"/>
<path d="M297.38 595.36L641.07 0.0600586" stroke="#B4B4B4" stroke-width="0.25" stroke-miterlimit="10"/>
<path d="M277.53 595.36L621.23 0.0600586" stroke="#B4B4B4" stroke-width="0.25" stroke-miterlimit="10"/>
<path d="M257.69 595.36L601.39 0.0600586" stroke="#B4B4B4" stroke-width="0.25" stroke-miterlimit="10"/>
<path d="M237.85 595.36L581.54 0.0600586" stroke="#B4B4B4" stroke-width="0.25" stroke-miterlimit="10"/>
<path d="M218 595.36L561.7 0.0600586" stroke="#B4B4B4" stroke-width="0.25" stroke-miterlimit="10"/>
<path d="M198.16 595.36L541.86 0.0600586" stroke="#B4B4B4" stroke-width="0.25" stroke-miterlimit="10"/>
<path d="M178.32 595.36L522.01 0.0600586" stroke="#B4B4B4" stroke-width="0.25" stroke-miterlimit="10"/>
<path d="M158.48 595.36L502.17 0.0600586" stroke="#B4B4B4" stroke-width="0.25" stroke-miterlimit="10"/>
<path d="M138.63 595.36L482.33 0.0600586" stroke="#B4B4B4" stroke-width="0.25" stroke-miterlimit="10"/>
<path d="M118.79 595.36L462.48 0.0600586" stroke="#B4B4B4" stroke-width="0.25" stroke-miterlimit="10"/>
<path d="M98.9502 595.36L442.64 0.0600586" stroke="#B4B4B4" stroke-width="0.25" stroke-miterlimit="10"/>
<path d="M79.1001 595.36L422.8 0.0600586" stroke="#B4B4B4" stroke-width="0.25" stroke-miterlimit="10"/>
<path d="M59.26 595.36L402.95 0.0600586" stroke="#B4B4B4" stroke-width="0.25" stroke-miterlimit="10"/>
<path d="M39.4202 595.36L383.11 0.0600586" stroke="#B4B4B4" stroke-width="0.25" stroke-miterlimit="10"/>
<path d="M19.5701 595.36L363.27 0.0600586" stroke="#B4B4B4" stroke-width="0.25" stroke-miterlimit="10"/>
<path d="M-0.269775 595.36L343.42 0.0600586" stroke="#B4B4B4" stroke-width="0.25" stroke-miterlimit="10"/>
<path d="M-20.1099 595.36L323.58 0.0600586" stroke="#B4B4B4" stroke-width="0.25" stroke-miterlimit="10"/>
<path d="M-39.96 595.36L303.74 0.0600586" stroke="#B4B4B4" stroke-width="0.25" stroke-miterlimit="10"/>
<path d="M-59.7998 595.36L283.89 0.0600586" stroke="#B4B4B4" stroke-width="0.25" stroke-miterlimit="10"/>
<path d="M-79.6399 595.36L264.05 0.0600586" stroke="#B4B4B4" stroke-width="0.25" stroke-miterlimit="10"/>
<path d="M-99.49 595.36L244.21 0.0600586" stroke="#B4B4B4" stroke-width="0.25" stroke-miterlimit="10"/>
<path d="M-119.33 595.36L224.36 0.0600586" stroke="#B4B4B4" stroke-width="0.25" stroke-miterlimit="10"/>
<path d="M918.88 34.4301L595.03 595.36" stroke="#B4B4B4" stroke-width="0.25" stroke-miterlimit="10"/>
<path d="M614.87 595.36L918.88 68.8" stroke="#B4B4B4" stroke-width="0.25" stroke-miterlimit="10"/>
<path d="M918.88 103.17L634.71 595.36" stroke="#B4B4B4" stroke-width="0.25" stroke-miterlimit="10"/>
<path d="M918.88 137.54L654.56 595.36" stroke="#B4B4B4" stroke-width="0.25" stroke-miterlimit="10"/>
<path d="M918.88 171.91L674.4 595.36" stroke="#B4B4B4" stroke-width="0.25" stroke-miterlimit="10"/>
<path d="M918.88 206.28L694.24 595.36" stroke="#B4B4B4" stroke-width="0.25" stroke-miterlimit="10"/>
<path d="M918.88 240.65L714.09 595.36" stroke="#B4B4B4" stroke-width="0.25" stroke-miterlimit="10"/>
<path d="M918.88 275.02L733.93 595.36" stroke="#B4B4B4" stroke-width="0.25" stroke-miterlimit="10"/>
<path d="M918.88 309.39L753.77 595.36" stroke="#B4B4B4" stroke-width="0.25" stroke-miterlimit="10"/>
<path d="M918.88 343.76L773.62 595.36" stroke="#B4B4B4" stroke-width="0.25" stroke-miterlimit="10"/>
<path d="M918.88 378.13L793.46 595.36" stroke="#B4B4B4" stroke-width="0.25" stroke-miterlimit="10"/>
<path d="M-122.89 567.16L204.52 0.0600586" stroke="#B4B4B4" stroke-width="0.25" stroke-miterlimit="10"/>
<path d="M184.68 0.0600586L-122.89 532.79" stroke="#B4B4B4" stroke-width="0.25" stroke-miterlimit="10"/>
<path d="M-122.89 498.42L164.84 0.0600586" stroke="#B4B4B4" stroke-width="0.25" stroke-miterlimit="10"/>
<path d="M-122.89 464.05L144.99 0.0600586" stroke="#B4B4B4" stroke-width="0.25" stroke-miterlimit="10"/>
<path d="M-122.89 395.31L105.31 0.0600586" stroke="#B4B4B4" stroke-width="0.25" stroke-miterlimit="10"/>
<path d="M-122.89 360.94L85.4601 0.0600586" stroke="#B4B4B4" stroke-width="0.25" stroke-miterlimit="10"/>
<path d="M-122.89 326.57L65.6201 0.0600586" stroke="#B4B4B4" stroke-width="0.25" stroke-miterlimit="10"/>
<path d="M-122.89 292.2L45.7801 0.0600586" stroke="#B4B4B4" stroke-width="0.25" stroke-miterlimit="10"/>
<path d="M-122.89 257.83L25.9301 0.0600586" stroke="#B4B4B4" stroke-width="0.25" stroke-miterlimit="10"/>
<path d="M-122.89 223.46L6.0901 0.0600586" stroke="#B4B4B4" stroke-width="0.25" stroke-miterlimit="10"/>
<path d="M-122.89 429.68L125.15 0.0600586" stroke="#B4B4B4" stroke-width="0.25" stroke-miterlimit="10"/>
<path d="M220.8 595.36L-122.89 0.0600586" stroke="#B4B4B4" stroke-width="0.25" stroke-miterlimit="10"/>
<path d="M240.65 595.36L-103.05 0.0600586" stroke="#B4B4B4" stroke-width="0.25" stroke-miterlimit="10"/>
<path d="M260.49 595.36L-83.21 0.0600586" stroke="#B4B4B4" stroke-width="0.25" stroke-miterlimit="10"/>
<path d="M280.33 595.36L-63.3599 0.0600586" stroke="#B4B4B4" stroke-width="0.25" stroke-miterlimit="10"/>
<path d="M300.18 595.36L-43.5198 0.0600586" stroke="#B4B4B4" stroke-width="0.25" stroke-miterlimit="10"/>
<path d="M320.02 595.36L-23.6799 0.0600586" stroke="#B4B4B4" stroke-width="0.25" stroke-miterlimit="10"/>
<path d="M339.86 595.36L-3.82983 0.0600586" stroke="#B4B4B4" stroke-width="0.25" stroke-miterlimit="10"/>
<path d="M359.71 595.36L16.01 0.0600586" stroke="#B4B4B4" stroke-width="0.25" stroke-miterlimit="10"/>
<path d="M379.55 595.36L35.8501 0.0600586" stroke="#B4B4B4" stroke-width="0.25" stroke-miterlimit="10"/>
<path d="M399.39 595.36L55.7002 0.0600586" stroke="#B4B4B4" stroke-width="0.25" stroke-miterlimit="10"/>
<path d="M419.24 595.36L75.54 0.0600586" stroke="#B4B4B4" stroke-width="0.25" stroke-miterlimit="10"/>
<path d="M439.08 595.36L95.3801 0.0600586" stroke="#B4B4B4" stroke-width="0.25" stroke-miterlimit="10"/>
<path d="M458.92 595.36L115.23 0.0600586" stroke="#B4B4B4" stroke-width="0.25" stroke-miterlimit="10"/>
<path d="M478.77 595.36L135.07 0.0600586" stroke="#B4B4B4" stroke-width="0.25" stroke-miterlimit="10"/>
<path d="M498.61 595.36L154.91 0.0600586" stroke="#B4B4B4" stroke-width="0.25" stroke-miterlimit="10"/>
<path d="M518.45 595.36L174.76 0.0600586" stroke="#B4B4B4" stroke-width="0.25" stroke-miterlimit="10"/>
<path d="M538.3 595.36L194.6 0.0600586" stroke="#B4B4B4" stroke-width="0.25" stroke-miterlimit="10"/>
<path d="M558.14 595.36L214.44 0.0600586" stroke="#B4B4B4" stroke-width="0.25" stroke-miterlimit="10"/>
<path d="M577.98 595.36L234.29 0.0600586" stroke="#B4B4B4" stroke-width="0.25" stroke-miterlimit="10"/>
<path d="M597.82 595.36L254.13 0.0600586" stroke="#B4B4B4" stroke-width="0.25" stroke-miterlimit="10"/>
<path d="M617.67 595.36L273.97 0.0600586" stroke="#B4B4B4" stroke-width="0.25" stroke-miterlimit="10"/>
<path d="M637.51 595.36L293.82 0.0600586" stroke="#B4B4B4" stroke-width="0.25" stroke-miterlimit="10"/>
<path d="M657.35 595.36L313.66 0.0600586" stroke="#B4B4B4" stroke-width="0.25" stroke-miterlimit="10"/>
<path d="M677.2 595.36L333.5 0.0600586" stroke="#B4B4B4" stroke-width="0.25" stroke-miterlimit="10"/>
<path d="M697.04 595.36L353.35 0.0600586" stroke="#B4B4B4" stroke-width="0.25" stroke-miterlimit="10"/>
<path d="M716.88 595.36L373.19 0.0600586" stroke="#B4B4B4" stroke-width="0.25" stroke-miterlimit="10"/>
<path d="M736.73 595.36L393.03 0.0600586" stroke="#B4B4B4" stroke-width="0.25" stroke-miterlimit="10"/>
<path d="M756.57 595.36L412.88 0.0600586" stroke="#B4B4B4" stroke-width="0.25" stroke-miterlimit="10"/>
<path d="M776.41 595.36L432.72 0.0600586" stroke="#B4B4B4" stroke-width="0.25" stroke-miterlimit="10"/>
<path d="M796.26 595.36L452.56 0.0600586" stroke="#B4B4B4" stroke-width="0.25" stroke-miterlimit="10"/>
<path d="M816.1 595.36L472.41 0.0600586" stroke="#B4B4B4" stroke-width="0.25" stroke-miterlimit="10"/>
<path d="M835.94 595.36L492.25 0.0600586" stroke="#B4B4B4" stroke-width="0.25" stroke-miterlimit="10"/>
<path d="M855.79 595.36L512.09 0.0600586" stroke="#B4B4B4" stroke-width="0.25" stroke-miterlimit="10"/>
<path d="M875.63 595.36L531.94 0.0600586" stroke="#B4B4B4" stroke-width="0.25" stroke-miterlimit="10"/>
<path d="M895.47 595.36L551.78 0.0600586" stroke="#B4B4B4" stroke-width="0.25" stroke-miterlimit="10"/>
<path d="M915.32 595.36L571.62 0.0600586" stroke="#B4B4B4" stroke-width="0.25" stroke-miterlimit="10"/>
<path d="M-122.89 34.4301L200.96 595.36" stroke="#B4B4B4" stroke-width="0.25" stroke-miterlimit="10"/>
<path d="M181.12 595.36L-122.89 68.8" stroke="#B4B4B4" stroke-width="0.25" stroke-miterlimit="10"/>
<path d="M-122.89 103.17L161.27 595.36" stroke="#B4B4B4" stroke-width="0.25" stroke-miterlimit="10"/>
<path d="M-122.89 137.54L141.43 595.36" stroke="#B4B4B4" stroke-width="0.25" stroke-miterlimit="10"/>
<path d="M-122.89 171.91L121.59 595.36" stroke="#B4B4B4" stroke-width="0.25" stroke-miterlimit="10"/>
<path d="M-122.89 206.28L101.74 595.36" stroke="#B4B4B4" stroke-width="0.25" stroke-miterlimit="10"/>
<path d="M-122.89 240.65L81.9001 595.36" stroke="#B4B4B4" stroke-width="0.25" stroke-miterlimit="10"/>
<path d="M-122.89 275.02L62.0601 595.36" stroke="#B4B4B4" stroke-width="0.25" stroke-miterlimit="10"/>
<path d="M-122.89 309.39L42.2101 595.36" stroke="#B4B4B4" stroke-width="0.25" stroke-miterlimit="10"/>
<path d="M-122.89 343.76L22.3701 595.36" stroke="#B4B4B4" stroke-width="0.25" stroke-miterlimit="10"/>
<path d="M-122.89 378.13L2.53011 595.36" stroke="#B4B4B4" stroke-width="0.25" stroke-miterlimit="10"/>
<path d="M918.88 567.16L591.46 0.0600586" stroke="#B4B4B4" stroke-width="0.25" stroke-miterlimit="10"/>
<path d="M611.31 0.0600586L918.88 532.79" stroke="#B4B4B4" stroke-width="0.25" stroke-miterlimit="10"/>
<path d="M918.88 498.42L631.15 0.0600586" stroke="#B4B4B4" stroke-width="0.25" stroke-miterlimit="10"/>
<path d="M918.88 464.05L650.99 0.0600586" stroke="#B4B4B4" stroke-width="0.25" stroke-miterlimit="10"/>
<path d="M918.88 395.31L690.68 0.0600586" stroke="#B4B4B4" stroke-width="0.25" stroke-miterlimit="10"/>
<path d="M918.88 360.94L710.52 0.0600586" stroke="#B4B4B4" stroke-width="0.25" stroke-miterlimit="10"/>
<path d="M918.88 326.57L730.37 0.0600586" stroke="#B4B4B4" stroke-width="0.25" stroke-miterlimit="10"/>
<path d="M918.88 292.2L750.21 0.0600586" stroke="#B4B4B4" stroke-width="0.25" stroke-miterlimit="10"/>
<path d="M918.88 257.83L770.05 0.0600586" stroke="#B4B4B4" stroke-width="0.25" stroke-miterlimit="10"/>
<path d="M918.88 223.46L789.9 0.0600586" stroke="#B4B4B4" stroke-width="0.25" stroke-miterlimit="10"/>
<path d="M918.88 429.68L670.84 0.0600586" stroke="#B4B4B4" stroke-width="0.25" stroke-miterlimit="10"/>
<path d="M407.823 209.28H413.921V211.908H407.823V218.817H405.03V211.908H398.932V209.28H405.03V202.896H407.823V209.28Z" fill="#2F80ED"/>
<path opacity="0.2" d="M596.44 180.23H556.76L536.91 214.6H576.6L596.44 248.97H477.38L556.76 111.49L536.91 77.1201L417.85 283.34H455.36H457.54H655.97L596.44 180.23Z" fill="#2F80ED"/>
<path opacity="0.5" d="M338.45 248.93L358.29 283.29H398L278.92 77.0801L159.86 283.29H199.54L219.39 248.93H338.45ZM239.23 214.56L278.92 145.82L318.59 214.57L239.23 214.56Z" fill="#2F80ED"/>
<path opacity="0.2" d="M437.68 421.42H397.99L378.15 455.79H417.84L437.68 490.16H318.62L397.99 352.68L378.15 318.31L259.09 524.53H296.59H298.78H497.21L437.68 421.42Z" fill="#2F80ED"/>
<path opacity="0.5" d="M477.37 490.12L497.21 524.48H536.9L417.84 318.27L298.78 524.48H338.46L358.31 490.12H477.37ZM378.15 455.75L417.84 387L457.51 455.75H378.15Z" fill="#2F80ED"/>
</g>
</svg>
