<svg width="800" height="600" viewBox="0 0 800 600" fill="none" xmlns="http://www.w3.org/2000/svg">
<rect width="800" height="600" fill="#F7F7F7"/>
<path fill-rule="evenodd" clip-rule="evenodd" d="M325 351H350.714L415 240.145L402.143 218L325 351ZM440.75 285L479 351H377L389.75 329.021H440.75L428 307.042H402.5L415.25 285H440.75ZM311.052 380.136L310.388 382H309L312.5 373L316 381.936H314.612L313.948 380.136H311.052ZM313.466 378.914L312.5 376.279L311.534 378.914H313.466ZM330 379.091V381.273L329.679 381.455H329.615H329.551H329.486L329.422 381.515H329.358H329.293H329.229H329.165H329.101C329.101 381.515 329.082 381.515 329.065 381.525C329.06 381.528 329.054 381.532 329.05 381.537C329.042 381.546 329.037 381.558 329.037 381.576C329.037 381.576 328.972 381.576 328.972 381.636C328.459 381.818 328.009 381.939 327.431 382H327.367H327.239C326.789 382 326.339 381.939 325.89 381.818C325.858 381.818 325.842 381.803 325.826 381.788C325.81 381.773 325.793 381.758 325.761 381.758C325.729 381.758 325.697 381.742 325.665 381.727C325.633 381.712 325.601 381.697 325.569 381.697L325.184 381.515C324.979 381.399 324.774 381.258 324.569 381.109C324.453 381.024 324.336 380.936 324.22 380.848C323.835 380.485 323.514 380.061 323.321 379.576C323.142 379.238 323.074 378.848 323.014 378.502L323 378.424V378V377.818C323.064 377.333 323.128 376.909 323.321 376.424C323.514 375.939 323.835 375.515 324.22 375.152C324.605 374.788 325.055 374.485 325.569 374.303C326.083 374.061 326.661 374 327.239 374H327.367H327.431H327.56C328.073 374.061 328.523 374.121 328.972 374.364C328.972 374.364 329.037 374.364 329.037 374.424V375.939L328.459 375.576C328.266 375.515 328.073 375.455 327.945 375.394H327.881H327.816H327.752H327.624H327.56H327.495H327.431H327.367H327.303H327.239H327.174H327.11C326.596 375.394 326.018 375.515 325.569 375.758C325.569 375.758 325.546 375.758 325.528 375.77C325.515 375.779 325.505 375.793 325.505 375.818C325.391 375.89 325.277 375.961 325.177 376.033C325.107 376.083 325.043 376.132 324.991 376.182C324.927 376.242 324.862 376.242 324.862 376.303C324.798 376.364 324.734 376.424 324.734 376.485C324.734 376.545 324.67 376.545 324.67 376.606V376.667C324.583 376.775 324.523 376.896 324.471 377.023C324.444 377.089 324.419 377.157 324.394 377.226L324.392 377.233L324.39 377.238L324.388 377.243L324.388 377.245L324.386 377.249C324.354 377.337 324.322 377.426 324.284 377.515C324.284 377.586 324.262 377.657 324.244 377.716C324.231 377.758 324.22 377.793 324.22 377.818V377.939V378.121V378.242C324.22 378.282 324.223 378.325 324.229 378.369L324.237 378.424L324.244 378.468C324.252 378.511 324.262 378.555 324.273 378.598C324.286 378.652 324.302 378.705 324.317 378.755C324.328 378.787 324.338 378.819 324.349 378.848C324.477 379.333 324.734 379.697 325.119 380.061C325.697 380.606 326.404 380.848 327.174 380.848H327.239H327.303H327.367H327.431H327.495H327.56H327.624C327.635 380.848 327.648 380.847 327.662 380.844C327.689 380.838 327.721 380.828 327.752 380.818L327.78 380.81C327.798 380.804 327.815 380.799 327.831 380.795C327.841 380.793 327.851 380.791 327.86 380.79C327.867 380.788 327.874 380.788 327.881 380.788H327.945H328.009H328.073H328.138C328.233 380.758 328.313 380.728 328.385 380.697C328.429 380.679 328.47 380.661 328.51 380.642L328.587 380.606V379.091H326.982V377.939H329.936V379.091H330ZM353.667 377.403V382H355V373L351 379.022L347 373V382H348.333V377.403L351 381.417L353.667 377.403ZM364.312 377.248H367.375V378.391H364.312V380.857H368V382H364.312H363V374H364.312H368V375.143H364.312V377.248ZM378.663 375.143H380.937V374H375V375.143H377.337V382H378.663V375.143ZM391.93 380.136H389.07L388.4 382H387L390.469 373L394 381.936H392.6L391.93 380.136ZM391.443 378.914L390.469 376.279L389.496 378.914H391.443ZM402.299 382H405.935H406V380.857H402.364V374H401V382H402.299ZM429 377.97C429 379.113 428.633 380.075 428.021 380.797C427.653 381.158 427.225 381.459 426.735 381.699C426.184 381.88 425.633 382 424.959 382H423.428H423V374H424.286H424.959C425.633 374 426.184 374.12 426.735 374.301C427.225 374.481 427.714 374.782 428.021 375.203C428.633 375.865 429 376.827 429 377.97ZM427.714 377.97C427.714 377.128 427.469 376.466 427.041 375.985C426.551 375.444 425.816 375.203 424.898 375.203H424.225V380.737H424.898C425.816 380.737 426.551 380.496 427.041 379.955C427.469 379.474 427.714 378.752 427.714 377.97ZM441.375 377.248H438.312V375.143H442V374H438.312H437V382H438.312H442V380.857H438.312V378.391H441.375V377.248ZM453.893 380.408C453.636 381.174 452.927 381.764 451.962 381.941C451.769 382 451.64 382 451.447 382C451.125 382 450.739 381.941 450.417 381.823C449.901 381.646 449.386 381.292 449 380.821L450.094 380.054C450.352 380.349 450.61 380.585 450.932 380.644C451.189 380.762 451.447 380.762 451.704 380.703C452.155 380.644 452.477 380.349 452.606 380.054C452.734 379.7 452.477 379.405 452.219 379.169C452.148 379.104 452.068 379.033 451.985 378.96L451.762 378.764L451.76 378.763C451.463 378.503 451.189 378.264 451.189 378.226L450.159 377.341C449.837 377.046 449.644 376.751 449.515 376.398C449.386 376.044 449.386 375.749 449.515 375.395C449.644 375.041 449.837 374.746 450.159 374.511C450.417 374.275 450.803 374.157 451.189 374.039C451.575 373.98 452.026 373.98 452.477 374.098C452.927 374.275 453.314 374.51 453.636 374.864L452.606 375.631C452.155 375.159 451.704 375.159 451.447 375.159C451.125 375.218 450.867 375.395 450.803 375.631C450.739 375.808 450.739 376.044 451.125 376.339L452.541 377.577L453.185 378.167C453.571 378.462 453.829 378.815 453.958 379.169C454.022 379.641 454.022 380.054 453.893 380.408ZM463 374H462V382H463V374ZM477 379.091V381.273L476.679 381.455H476.615H476.551H476.486L476.422 381.515H476.358H476.293H476.229H476.165H476.101C476.101 381.515 476.08 381.515 476.062 381.526C476.049 381.535 476.037 381.55 476.037 381.576C476.037 381.576 476.011 381.576 475.993 381.591C475.981 381.6 475.972 381.614 475.972 381.636C475.459 381.818 475.009 381.939 474.431 382H474.367H474.239C473.789 382 473.339 381.939 472.89 381.818C472.858 381.818 472.842 381.803 472.826 381.788C472.81 381.773 472.793 381.758 472.761 381.758C472.745 381.758 472.728 381.753 472.711 381.747C472.696 381.742 472.68 381.735 472.665 381.727C472.633 381.712 472.601 381.697 472.569 381.697L472.184 381.515C471.862 381.333 471.541 381.091 471.22 380.848C470.835 380.485 470.514 380.061 470.321 379.576C470.142 379.238 470.074 378.848 470.014 378.502L470 378.424V378V377.818C470.064 377.333 470.128 376.909 470.321 376.424C470.514 375.939 470.835 375.515 471.22 375.152C471.605 374.788 472.055 374.485 472.569 374.303C473.083 374.061 473.661 374 474.239 374H474.367H474.431H474.56C475.073 374.061 475.523 374.121 475.972 374.364C475.972 374.364 475.997 374.364 476.016 374.378C476.027 374.387 476.037 374.401 476.037 374.424V375.939L475.459 375.576C475.266 375.515 475.073 375.455 474.945 375.394H474.881H474.816H474.752H474.624H474.56H474.495H474.431H474.367H474.303H474.239H474.174H474.11C473.596 375.394 473.018 375.515 472.569 375.758C472.569 375.758 472.505 375.758 472.505 375.818C472.312 375.939 472.119 376.061 471.991 376.182C471.927 376.242 471.862 376.242 471.862 376.303C471.798 376.364 471.734 376.424 471.734 376.485C471.734 376.545 471.67 376.545 471.67 376.606V376.667C471.535 376.837 471.463 377.036 471.388 377.245C471.355 377.334 471.323 377.424 471.284 377.515C471.284 377.586 471.262 377.657 471.244 377.716C471.231 377.758 471.22 377.793 471.22 377.818V377.939V378.121V378.242C471.22 378.424 471.284 378.667 471.349 378.848C471.477 379.333 471.734 379.697 472.119 380.061C472.697 380.606 473.404 380.848 474.174 380.848H474.239H474.303H474.367H474.431H474.495H474.56H474.624C474.688 380.848 474.816 380.788 474.881 380.788H474.945H475.009H475.073H475.138C475.244 380.754 475.331 380.721 475.409 380.687C475.472 380.66 475.53 380.633 475.587 380.606V379.091H473.982V377.939H476.936V379.091H477ZM486.4 382.589V376.699L492 383V373.479H490.6V379.301L485 373V382.589H486.4Z" fill="#010101"/>
</svg>
