<?xml version="1.0" standalone="no"?>
<!DOCTYPE svg PUBLIC "-//W3C//DTD SVG 20010904//EN"
 "http://www.w3.org/TR/2001/REC-SVG-20010904/DTD/svg10.dtd">
<svg version="1.0" xmlns="http://www.w3.org/2000/svg"
 width="500.000000pt" height="500.000000pt" viewBox="0 0 500.000000 500.000000"
 preserveAspectRatio="xMidYMid meet">
<metadata>
Created by potrace 1.11, written by Peter Selinger 2001-2013
</metadata>
<g transform="translate(0.000000,500.000000) scale(0.100000,-0.100000)"
fill="#000000" stroke="none">
<path d="M870 2563 c-239 -395 -436 -722 -438 -729 -4 -14 110 -86 119 -76 4
4 174 284 379 622 204 338 375 618 378 621 4 4 183 -283 397 -637 215 -354
393 -643 397 -641 4 1 181 288 393 637 212 349 389 635 395 635 5 0 183 -286
395 -635 212 -349 388 -636 393 -637 7 -2 874 1419 880 1443 3 11 -6 18 -79
62 l-37 22 -382 -630 -383 -631 -81 134 c-44 73 -220 363 -391 645 -170 281
-313 512 -316 512 -3 0 -180 -288 -394 -640 -213 -352 -391 -640 -395 -640 -3
0 -181 288 -395 640 -214 352 -392 640 -395 640 -3 0 -201 -323 -440 -717z"/>
</g>
</svg>
