<svg width="801" height="601" viewBox="0 0 801 601" fill="none" xmlns="http://www.w3.org/2000/svg">
<g clip-path="url(#clip0)">
<path d="M800.13 0.130005H0.130005V600.13H800.13V0.130005Z" stroke="#74C2FF" stroke-width="0.25" stroke-miterlimit="10"/>
<path d="M0.130005 550.39L800.1 104.8" stroke="#74C2FF" stroke-width="0.25" stroke-miterlimit="10"/>
<path d="M0.130005 547.7L800.1 102.11" stroke="#74C2FF" stroke-width="0.25" stroke-miterlimit="10"/>
<path d="M0.130005 532.88L800.1 87.3" stroke="#74C2FF" stroke-width="0.25" stroke-miterlimit="10"/>
<path d="M0.130005 530.19L800.12 84.58" stroke="#74C2FF" stroke-width="0.25" stroke-miterlimit="10"/>
<path d="M0.119995 515.74L800.1 70.15" stroke="#74C2FF" stroke-width="0.25" stroke-miterlimit="10"/>
<path d="M0.119995 513.05L800.1 67.46" stroke="#74C2FF" stroke-width="0.25" stroke-miterlimit="10"/>
<path d="M0.119995 498.12L800.13 52.52" stroke="#74C2FF" stroke-width="0.25" stroke-miterlimit="10"/>
<path d="M0.119995 495.42L800.12 49.8199" stroke="#74C2FF" stroke-width="0.25" stroke-miterlimit="10"/>
<path d="M800.1 550.39L0.119995 104.8" stroke="#74C2FF" stroke-width="0.25" stroke-miterlimit="10"/>
<path d="M800.1 547.7L0.119995 102.11" stroke="#74C2FF" stroke-width="0.25" stroke-miterlimit="10"/>
<path d="M800.1 532.88L0.130005 87.3" stroke="#74C2FF" stroke-width="0.25" stroke-miterlimit="10"/>
<path d="M800.1 530.19L0.119995 84.6" stroke="#74C2FF" stroke-width="0.25" stroke-miterlimit="10"/>
<path d="M800.1 515.74L0.119995 70.15" stroke="#74C2FF" stroke-width="0.25" stroke-miterlimit="10"/>
<path d="M800.1 513.05L0.130005 67.46" stroke="#74C2FF" stroke-width="0.25" stroke-miterlimit="10"/>
<path d="M800.1 498.12L0.119995 52.53" stroke="#74C2FF" stroke-width="0.25" stroke-miterlimit="10"/>
<path d="M800.1 495.42L0.119995 49.84" stroke="#74C2FF" stroke-width="0.25" stroke-miterlimit="10"/>
<path d="M0.130005 327.6H800.1" stroke="#74C2FF" stroke-width="0.25" stroke-miterlimit="10"/>
<path d="M0.130005 272.62H800.1" stroke="#74C2FF" stroke-width="0.25" stroke-miterlimit="10"/>
<path d="M0.130005 382.6H800.1" stroke="#74C2FF" stroke-width="0.25" stroke-miterlimit="10"/>
<path d="M0.130005 391.45H800.1" stroke="#74C2FF" stroke-width="0.25" stroke-miterlimit="10"/>
<path d="M433.62 291.39L400.14 272.65L366.62 291.32L382.34 300.11L366.62 308.86L400.11 327.6L433.62 308.93L417.91 300.14L433.62 291.39ZM400.14 275.32L428.84 291.38L400.11 307.38L371.41 291.32L400.14 275.32ZM428.84 308.93L400.11 324.93L371.41 308.87L384.73 301.45L400.11 310.06L415.52 301.47L428.84 308.93Z" fill="#F76C4B"/>
<path fill-rule="evenodd" clip-rule="evenodd" d="M401.65 391.42C401.057 391.432 400.467 391.32 399.92 391.09C399.461 390.902 399.065 390.586 398.78 390.18C398.508 389.776 398.368 389.297 398.38 388.81V388.6C398.379 388.592 398.379 388.583 398.379 388.575C398.379 388.569 398.379 388.563 398.38 388.557C398.382 388.543 398.385 388.529 398.389 388.516C398.399 388.489 398.414 388.465 398.434 388.444C398.455 388.424 398.479 388.409 398.506 388.399L398.519 388.395L398.534 388.392C398.541 388.391 398.548 388.39 398.556 388.389C398.567 388.388 398.579 388.389 398.59 388.39H399.91C400.05 388.39 400.12 388.44 400.12 388.55V388.72C400.119 388.889 400.16 389.056 400.24 389.204C400.321 389.353 400.438 389.479 400.58 389.57C400.933 389.808 401.354 389.927 401.78 389.91C401.944 389.925 402.109 389.912 402.266 389.873C402.374 389.846 402.478 389.807 402.577 389.756C402.648 389.72 402.716 389.678 402.78 389.63C402.797 389.616 402.813 389.601 402.829 389.586C402.854 389.562 402.877 389.536 402.899 389.509C402.908 389.498 402.916 389.487 402.925 389.475C402.934 389.462 402.944 389.449 402.953 389.435C402.964 389.418 402.974 389.402 402.983 389.385C402.995 389.364 403.006 389.342 403.016 389.32C403.036 389.278 403.052 389.235 403.065 389.19C403.074 389.16 403.081 389.129 403.086 389.098C403.091 389.069 403.095 389.041 403.097 389.012C403.099 388.988 403.1 388.964 403.1 388.94C403.104 388.847 403.089 388.755 403.054 388.668C403.02 388.582 402.967 388.504 402.9 388.44C402.747 388.284 402.563 388.162 402.36 388.08C402.13 387.97 401.77 387.82 401.27 387.64C400.96 387.54 400.656 387.425 400.358 387.296C400.271 387.258 400.185 387.22 400.1 387.18C400.009 387.138 399.919 387.095 399.83 387.05C399.443 386.854 399.102 386.578 398.83 386.24C398.553 385.872 398.412 385.42 398.43 384.96C398.42 384.493 398.556 384.035 398.82 383.65C399.093 383.268 399.467 382.97 399.9 382.79C400.962 382.363 402.148 382.363 403.21 382.79C403.682 382.989 404.088 383.319 404.38 383.74C404.667 384.146 404.818 384.633 404.81 385.13V385.26C404.81 385.4 404.74 385.47 404.59 385.47H403.27C403.13 385.47 403.06 385.47 403.06 385.34V385.22C403.06 385.048 403.02 384.878 402.944 384.724C402.868 384.569 402.757 384.434 402.62 384.33C402.285 384.066 401.865 383.935 401.44 383.96C401.23 383.945 401.02 383.975 400.825 384.046C400.711 384.087 400.602 384.142 400.5 384.21C400.397 384.29 400.314 384.394 400.259 384.512C400.203 384.63 400.176 384.759 400.18 384.89C400.172 385.085 400.24 385.275 400.37 385.42C400.527 385.586 400.718 385.716 400.93 385.8C401.092 385.87 401.256 385.938 401.421 386.001C401.655 386.091 401.891 386.174 402.13 386.25C402.71 386.47 403.18 386.66 403.52 386.83C403.881 386.995 404.197 387.245 404.44 387.56C404.731 387.925 404.881 388.383 404.86 388.85C404.867 389.325 404.723 389.791 404.45 390.18C404.173 390.579 403.783 390.885 403.33 391.06C402.801 391.296 402.229 391.419 401.65 391.42ZM391.22 391.09C391.764 391.319 392.35 391.432 392.94 391.42C393.523 391.433 394.102 391.324 394.64 391.1C395.093 390.925 395.483 390.619 395.76 390.22C396.03 389.83 396.17 389.365 396.16 388.89C396.184 388.425 396.039 387.966 395.75 387.6C395.505 387.288 395.19 387.038 394.83 386.87C394.605 386.757 394.296 386.618 393.959 386.485C393.853 386.443 393.745 386.402 393.635 386.362C393.567 386.337 393.499 386.313 393.43 386.29C392.9 386.11 392.5 385.96 392.24 385.84C392.026 385.753 391.832 385.624 391.67 385.46C391.609 385.388 391.562 385.307 391.53 385.221C391.496 385.129 391.479 385.03 391.48 384.93C391.478 384.861 391.484 384.791 391.499 384.724C391.513 384.664 391.534 384.605 391.561 384.549C391.618 384.431 391.704 384.328 391.81 384.25C392.084 384.066 392.411 383.978 392.74 384C393.169 383.973 393.592 384.105 393.93 384.37C394.067 384.475 394.178 384.609 394.254 384.764C394.291 384.839 394.32 384.918 394.339 385C394.36 385.085 394.37 385.172 394.37 385.26V385.38C394.37 385.51 394.44 385.51 394.58 385.51H395.9C395.915 385.512 395.93 385.512 395.945 385.51C395.958 385.508 395.971 385.505 395.984 385.501C395.993 385.497 396.002 385.494 396.01 385.489L396.024 385.481C396.035 385.474 396.046 385.465 396.056 385.456C396.076 385.435 396.091 385.411 396.1 385.384C396.11 385.357 396.113 385.328 396.11 385.3V385.17C396.122 384.674 395.974 384.187 395.69 383.78C395.398 383.359 394.992 383.029 394.52 382.83C393.981 382.596 393.398 382.48 392.81 382.49C392.262 382.479 391.717 382.581 391.21 382.79C390.777 382.97 390.403 383.268 390.13 383.65C389.866 384.035 389.73 384.493 389.74 384.96C389.722 385.42 389.863 385.872 390.14 386.24C390.411 386.579 390.752 386.856 391.14 387.05C391.359 387.161 391.583 387.263 391.809 387.358C392.059 387.462 392.313 387.556 392.57 387.64C392.944 387.768 393.311 387.915 393.67 388.08C393.873 388.162 394.057 388.284 394.21 388.44C394.275 388.506 394.326 388.584 394.361 388.67C394.395 388.756 394.412 388.848 394.41 388.94C394.41 388.976 394.408 389.012 394.404 389.048C394.401 389.07 394.398 389.091 394.394 389.112C394.379 389.185 394.356 389.256 394.324 389.323C394.291 389.393 394.248 389.457 394.198 389.516C394.162 389.557 394.123 389.596 394.08 389.63C393.794 389.846 393.437 389.946 393.08 389.91C392.651 389.93 392.226 389.81 391.87 389.57C391.73 389.478 391.615 389.351 391.536 389.203C391.457 389.054 391.417 388.888 391.42 388.72V388.55C391.42 388.44 391.35 388.39 391.21 388.39H389.89C389.825 388.39 389.775 388.403 389.74 388.429C389.693 388.463 389.67 388.521 389.67 388.6V388.81C389.662 389.298 389.805 389.777 390.08 390.18C390.363 390.588 390.76 390.904 391.22 391.09ZM338.64 391.32H338.06C338.026 391.312 337.995 391.295 337.969 391.273C337.943 391.25 337.923 391.222 337.91 391.19L336.07 387.35C336.054 387.325 336.029 387.307 336 387.3H333.8C333.783 387.302 333.768 387.311 333.757 387.324C333.754 387.327 333.751 387.331 333.749 387.335L333.746 387.34C333.742 387.35 333.74 387.36 333.74 387.37V391.15C333.741 391.172 333.738 391.194 333.731 391.214C333.723 391.235 333.712 391.254 333.697 391.27C333.689 391.278 333.68 391.286 333.67 391.292C333.664 391.296 333.658 391.3 333.652 391.303L333.644 391.307C333.624 391.316 333.602 391.32 333.58 391.32H333.01C332.988 391.32 332.966 391.316 332.946 391.307C332.937 391.303 332.929 391.298 332.921 391.293L332.91 391.285C332.904 391.28 332.898 391.275 332.893 391.27C332.878 391.254 332.867 391.235 332.859 391.214C332.852 391.194 332.849 391.172 332.85 391.15V382.74C332.848 382.719 332.852 382.697 332.859 382.677C332.862 382.67 332.865 382.663 332.868 382.657L332.873 382.65L332.877 382.643L332.884 382.635C332.887 382.631 332.89 382.627 332.894 382.624C332.909 382.608 332.927 382.597 332.947 382.589C332.959 382.585 332.972 382.582 332.985 382.58C332.993 382.579 333.002 382.579 333.01 382.58H336.23C336.55 382.56 336.872 382.608 337.172 382.72C337.473 382.833 337.746 383.008 337.975 383.233C338.203 383.459 338.382 383.73 338.498 384.029C338.614 384.329 338.666 384.649 338.65 384.97C338.677 385.496 338.515 386.015 338.192 386.432C337.869 386.848 337.407 387.135 336.89 387.24V387.32L338.76 391.13C338.784 391.183 338.785 391.229 338.766 391.262C338.746 391.298 338.702 391.32 338.64 391.32ZM336.17 383.32H333.84V383.35C333.832 383.349 333.825 383.35 333.817 383.351C333.813 383.352 333.809 383.354 333.805 383.356C333.795 383.361 333.786 383.37 333.78 383.38V386.5C333.78 386.506 333.781 386.513 333.783 386.519C333.786 386.527 333.791 386.536 333.797 386.542C333.804 386.549 333.813 386.554 333.822 386.557C333.827 386.559 333.834 386.56 333.84 386.56H336.17C336.6 386.56 337.012 386.389 337.315 386.085C337.619 385.782 337.79 385.37 337.79 384.94C337.79 384.51 337.619 384.098 337.315 383.794C337.012 383.491 336.6 383.32 336.17 383.32ZM318.77 386.77C319.155 386.628 319.484 386.368 319.71 386.026C319.937 385.684 320.049 385.279 320.03 384.87C320.03 383.4 319.03 382.59 317.41 382.59H314.49C314.468 382.589 314.447 382.592 314.427 382.599C314.417 382.603 314.408 382.607 314.4 382.613L314.393 382.618L314.387 382.622L314.38 382.628L314.374 382.634C314.358 382.649 314.347 382.667 314.339 382.687C314.332 382.707 314.328 382.729 314.33 382.75V391.15C314.329 391.172 314.332 391.194 314.339 391.214C314.347 391.235 314.358 391.254 314.373 391.27C314.381 391.278 314.389 391.285 314.398 391.291C314.407 391.297 314.416 391.303 314.426 391.307C314.446 391.316 314.468 391.32 314.49 391.32H317.49C317.574 391.33 317.658 391.336 317.741 391.338C317.777 391.338 317.813 391.338 317.849 391.337L317.907 391.335L317.938 391.333C318.122 391.32 318.305 391.286 318.482 391.23C318.802 391.13 319.097 390.961 319.347 390.736C319.596 390.512 319.795 390.236 319.928 389.927C320.061 389.619 320.127 389.286 320.12 388.95C320.146 388.5 320.028 388.053 319.784 387.673C319.539 387.294 319.181 387.002 318.76 386.84C318.76 386.84 318.72 386.79 318.77 386.77ZM315.29 383.36H317.41C317.456 383.355 317.503 383.352 317.549 383.351C317.725 383.348 317.9 383.374 318.068 383.428C318.152 383.456 318.233 383.49 318.31 383.531C318.429 383.593 318.54 383.671 318.639 383.762C318.74 383.854 318.828 383.959 318.902 384.073C318.948 384.145 318.989 384.222 319.023 384.301C319.078 384.43 319.116 384.567 319.135 384.706C319.146 384.786 319.151 384.868 319.15 384.95C319.149 385.168 319.102 385.384 319.011 385.582C318.92 385.78 318.788 385.957 318.623 386.1C318.458 386.243 318.265 386.349 318.055 386.411C317.846 386.473 317.626 386.49 317.41 386.46H315.29C315.271 386.46 315.254 386.453 315.24 386.439C315.235 386.434 315.23 386.428 315.227 386.421C315.224 386.415 315.223 386.41 315.221 386.404C315.22 386.399 315.22 386.395 315.22 386.39V383.39C315.228 383.379 315.238 383.37 315.25 383.365C315.256 383.362 315.261 383.361 315.267 383.36L315.271 383.359L315.276 383.359H315.28L315.29 383.36ZM317.5 390.53H315.29C315.29 390.53 315.265 390.53 315.245 390.518C315.232 390.509 315.22 390.495 315.22 390.47V387.27C315.22 387.251 315.227 387.234 315.24 387.22C315.254 387.207 315.271 387.2 315.29 387.2H317.45C317.601 387.184 317.753 387.189 317.902 387.215C317.981 387.229 318.058 387.249 318.134 387.274C318.355 387.348 318.556 387.468 318.726 387.626C318.896 387.785 319.03 387.978 319.118 388.192C319.207 388.407 319.248 388.638 319.24 388.87C319.246 389.005 319.236 389.141 319.208 389.272C319.189 389.363 319.163 389.451 319.128 389.537C319.044 389.749 318.914 389.94 318.749 390.098C318.584 390.255 318.387 390.375 318.172 390.45C317.956 390.524 317.727 390.552 317.5 390.53ZM327.071 391.399C327.221 391.376 327.37 391.339 327.515 391.29C327.883 391.166 328.22 390.964 328.504 390.699C328.788 390.434 329.012 390.112 329.161 389.753C329.311 389.395 329.382 389.008 329.37 388.62V382.75C329.371 382.729 329.368 382.707 329.361 382.687C329.353 382.667 329.342 382.649 329.326 382.634C329.311 382.618 329.293 382.607 329.273 382.599C329.253 382.592 329.231 382.589 329.21 382.59H328.64C328.619 382.589 328.597 382.592 328.577 382.599C328.557 382.607 328.539 382.618 328.524 382.634C328.517 382.64 328.511 382.647 328.506 382.654C328.503 382.66 328.499 382.665 328.496 382.671C328.494 382.676 328.491 382.682 328.489 382.687C328.482 382.707 328.478 382.729 328.48 382.75V388.65C328.48 389.207 328.259 389.741 327.865 390.135C327.471 390.529 326.937 390.75 326.38 390.75C325.823 390.75 325.289 390.529 324.895 390.135C324.501 389.741 324.28 389.207 324.28 388.65V382.75C324.28 382.728 324.275 382.706 324.267 382.686C324.258 382.666 324.245 382.648 324.23 382.633C324.225 382.628 324.219 382.624 324.214 382.62C324.202 382.611 324.188 382.604 324.174 382.599C324.154 382.592 324.132 382.589 324.11 382.59H323.55C323.528 382.589 323.506 382.592 323.486 382.599C323.465 382.607 323.446 382.618 323.43 382.633C323.414 382.648 323.402 382.666 323.393 382.686L323.39 382.695L323.387 382.704C323.382 382.719 323.38 382.734 323.38 382.75V388.62C323.37 389.007 323.442 389.392 323.591 389.749C323.74 390.106 323.964 390.427 324.246 390.691C324.529 390.956 324.864 391.158 325.23 391.283C325.596 391.409 325.985 391.455 326.37 391.42C326.604 391.443 326.84 391.436 327.071 391.399ZM347.55 383.2V382.75C347.55 382.728 347.546 382.706 347.537 382.686C347.532 382.676 347.526 382.665 347.52 382.656C347.514 382.648 347.507 382.64 347.5 382.633C347.484 382.618 347.465 382.607 347.444 382.599C347.424 382.592 347.402 382.589 347.38 382.59H342C341.991 382.589 341.981 382.59 341.972 382.591C341.966 382.591 341.96 382.593 341.954 382.594C341.948 382.595 341.942 382.597 341.937 382.599C341.917 382.607 341.899 382.618 341.884 382.634C341.868 382.649 341.857 382.667 341.849 382.687C341.847 382.693 341.845 382.699 341.844 382.705C341.84 382.72 341.839 382.735 341.84 382.75V391.15C341.839 391.163 341.84 391.177 341.842 391.189C341.844 391.198 341.846 391.206 341.849 391.214C341.857 391.235 341.868 391.254 341.883 391.27C341.898 391.286 341.916 391.298 341.936 391.307C341.956 391.316 341.978 391.32 342 391.32H347.37C347.393 391.321 347.415 391.318 347.437 391.31C347.441 391.309 347.445 391.307 347.448 391.305L347.462 391.298C347.473 391.291 347.484 391.283 347.493 391.273C347.51 391.257 347.522 391.238 347.53 391.217C347.538 391.195 347.541 391.173 347.54 391.15V390.71C347.541 390.687 347.538 390.665 347.53 390.643C347.522 390.622 347.51 390.603 347.493 390.586C347.487 390.58 347.479 390.574 347.472 390.568C347.461 390.561 347.449 390.555 347.437 390.55C347.415 390.542 347.393 390.538 347.37 390.54H342.8L342.793 390.539L342.787 390.539L342.782 390.538C342.775 390.536 342.767 390.534 342.759 390.53C342.756 390.528 342.752 390.526 342.749 390.523C342.746 390.521 342.743 390.518 342.741 390.515C342.734 390.506 342.73 390.495 342.73 390.48V387.38C342.73 387.38 342.73 387.365 342.739 387.349C342.748 387.335 342.765 387.32 342.8 387.32H346C346.022 387.32 346.043 387.316 346.064 387.307C346.069 387.305 346.074 387.302 346.079 387.299L346.089 387.293L346.096 387.288C346.103 387.283 346.11 387.277 346.117 387.27C346.132 387.254 346.143 387.235 346.151 387.214C346.158 387.194 346.161 387.172 346.16 387.15V386.7C346.161 386.687 346.16 386.674 346.158 386.662L346.156 386.654L346.154 386.647L346.151 386.637C346.148 386.63 346.145 386.622 346.141 386.615C346.134 386.604 346.126 386.593 346.116 386.584L346.107 386.575C346.103 386.571 346.099 386.568 346.094 386.565C346.085 386.559 346.074 386.553 346.063 386.549C346.053 386.545 346.043 386.543 346.032 386.541C346.022 386.54 346.011 386.539 346 386.54H342.81C342.81 386.54 342.803 386.54 342.794 386.538C342.789 386.537 342.783 386.536 342.777 386.533C342.772 386.531 342.767 386.529 342.763 386.526C342.76 386.523 342.756 386.521 342.754 386.518C342.746 386.509 342.74 386.497 342.74 386.48V383.43C342.74 383.411 342.747 383.394 342.76 383.381C342.774 383.367 342.791 383.36 342.81 383.36H347.38C347.402 383.361 347.424 383.358 347.444 383.351C347.465 383.343 347.484 383.332 347.5 383.317C347.515 383.302 347.528 383.284 347.537 383.264C347.541 383.253 347.545 383.242 347.547 383.23C347.549 383.22 347.55 383.21 347.55 383.2ZM356.6 391.32H356C355.982 391.319 355.965 391.316 355.948 391.309C355.929 391.302 355.911 391.292 355.895 391.278C355.866 391.253 355.847 391.218 355.84 391.18L355.34 389.66C355.338 389.646 355.33 389.633 355.319 389.624C355.317 389.622 355.315 389.62 355.312 389.619L355.305 389.615C355.297 389.612 355.289 389.61 355.28 389.61H351.53C351.47 389.61 351.47 389.66 351.47 389.66L350.97 391.18C350.965 391.221 350.945 391.258 350.913 391.284C350.881 391.31 350.841 391.323 350.8 391.32H350.19C350.166 391.323 350.143 391.319 350.121 391.309C350.099 391.299 350.081 391.284 350.068 391.264C350.063 391.258 350.06 391.251 350.056 391.245C350.054 391.238 350.051 391.232 350.05 391.225C350.047 391.217 350.046 391.208 350.045 391.198C350.044 391.175 350.049 391.151 350.06 391.13L352.82 382.73C352.827 382.689 352.85 382.651 352.883 382.625C352.89 382.62 352.897 382.615 352.905 382.611C352.915 382.605 352.925 382.601 352.936 382.598C352.956 382.591 352.978 382.589 353 382.59H353.79C353.831 382.587 353.871 382.6 353.903 382.626C353.935 382.652 353.955 382.689 353.96 382.73L356.74 391.13C356.78 391.24 356.72 391.32 356.6 391.32ZM353.34 383.71L351.72 388.81H351.69C351.685 388.835 351.717 388.855 351.751 388.869C351.785 388.883 351.82 388.89 351.82 388.89H355.06V388.81L353.42 383.71C353.417 383.693 353.409 383.68 353.399 383.673C353.391 383.667 353.382 383.664 353.374 383.665C353.356 383.667 353.34 383.682 353.34 383.71ZM362.44 391.42C362.826 391.457 363.216 391.412 363.583 391.287C363.95 391.162 364.287 390.96 364.571 390.696C364.854 390.431 365.078 390.109 365.228 389.751C365.26 389.676 365.288 389.6 365.312 389.522C365.328 389.473 365.342 389.423 365.355 389.373C365.383 389.264 365.404 389.152 365.419 389.04C365.437 388.901 365.444 388.761 365.44 388.62V382.75C365.44 382.738 365.439 382.727 365.436 382.716C365.435 382.709 365.433 382.702 365.431 382.695L365.427 382.686C365.418 382.666 365.406 382.648 365.39 382.633C365.374 382.618 365.355 382.607 365.334 382.599C365.322 382.595 365.31 382.592 365.297 382.591C365.288 382.59 365.279 382.589 365.27 382.59H364.71C364.688 382.589 364.666 382.592 364.646 382.599C364.625 382.607 364.606 382.618 364.59 382.633C364.574 382.648 364.562 382.666 364.553 382.686C364.549 382.697 364.545 382.707 364.543 382.718C364.541 382.729 364.54 382.739 364.54 382.75V388.65C364.54 389.207 364.319 389.741 363.925 390.135C363.531 390.529 362.997 390.75 362.44 390.75C361.883 390.75 361.349 390.529 360.955 390.135C360.561 389.741 360.34 389.207 360.34 388.65V382.75C360.341 382.739 360.34 382.728 360.339 382.717C360.337 382.707 360.334 382.697 360.331 382.687C360.329 382.682 360.327 382.678 360.325 382.673C360.32 382.664 360.315 382.655 360.308 382.647C360.304 382.642 360.301 382.638 360.296 382.634C360.289 382.626 360.28 382.619 360.271 382.613C360.262 382.608 360.253 382.603 360.243 382.599C360.223 382.592 360.201 382.589 360.18 382.59H359.61C359.589 382.589 359.567 382.592 359.547 382.599C359.527 382.607 359.509 382.618 359.494 382.634L359.487 382.641C359.484 382.644 359.481 382.648 359.478 382.652C359.47 382.662 359.464 382.674 359.459 382.687C359.452 382.707 359.449 382.729 359.45 382.75V388.62C359.44 389.007 359.512 389.392 359.661 389.749C359.687 389.81 359.715 389.871 359.745 389.931C359.806 390.05 359.875 390.165 359.952 390.273C360.059 390.424 360.181 390.564 360.316 390.691C360.366 390.738 360.417 390.782 360.469 390.824C360.546 390.886 360.626 390.944 360.708 390.997C360.893 391.115 361.091 391.212 361.3 391.283C361.666 391.409 362.055 391.455 362.44 391.42ZM372.482 391.318C372.493 391.32 372.504 391.321 372.514 391.321C372.523 391.321 372.531 391.321 372.54 391.32H375.62C376.187 391.333 376.751 391.22 377.27 390.99C377.722 390.794 378.108 390.471 378.38 390.06C378.644 389.645 378.78 389.162 378.77 388.67V385.23C378.782 384.74 378.646 384.257 378.378 383.847C378.11 383.436 377.723 383.116 377.27 382.93C376.753 382.692 376.189 382.575 375.62 382.59H372.54C372.511 382.585 372.481 382.587 372.453 382.596C372.425 382.605 372.399 382.62 372.377 382.64L372.367 382.651L372.357 382.663C372.346 382.678 372.336 382.695 372.33 382.713C372.32 382.741 372.316 382.771 372.32 382.8V391.1C372.317 391.13 372.32 391.16 372.33 391.188C372.335 391.201 372.341 391.214 372.349 391.226C372.357 391.239 372.366 391.252 372.377 391.263C372.399 391.284 372.424 391.3 372.452 391.31C372.462 391.313 372.472 391.316 372.482 391.318ZM374.17 389.81C374.1 389.81 374.1 389.73 374.1 389.73L374.06 384.23C374.06 384.198 374.064 384.18 374.074 384.171C374.08 384.165 374.088 384.162 374.098 384.161C374.107 384.16 374.118 384.16 374.13 384.16H375.63C375.815 384.146 376.001 384.174 376.174 384.241C376.347 384.309 376.503 384.414 376.63 384.55C376.873 384.825 377.002 385.183 376.99 385.55V388.42C376.994 388.789 376.859 389.147 376.61 389.42C376.493 389.55 376.349 389.652 376.189 389.719C376.028 389.787 375.854 389.818 375.68 389.81H374.17ZM387.47 383.89C387.472 383.905 387.471 383.919 387.47 383.934C387.468 383.947 387.465 383.961 387.46 383.974C387.451 384.001 387.436 384.025 387.416 384.046C387.407 384.054 387.398 384.061 387.389 384.068C387.375 384.077 387.36 384.085 387.344 384.091C387.332 384.095 387.319 384.098 387.307 384.1C387.291 384.102 387.275 384.102 387.26 384.1H383.21C383.21 384.1 383.202 384.1 383.191 384.102L383.185 384.104C383.181 384.105 383.177 384.106 383.173 384.108L383.165 384.111C383.147 384.121 383.13 384.138 383.13 384.17V386.08C383.128 386.091 383.129 386.102 383.133 386.113C383.136 386.123 383.142 386.133 383.15 386.14C383.157 386.148 383.167 386.154 383.177 386.158C383.188 386.161 383.199 386.162 383.21 386.16H385.84C385.868 386.157 385.897 386.16 385.924 386.17C385.93 386.172 385.937 386.174 385.943 386.177C385.952 386.182 385.962 386.187 385.97 386.193C385.979 386.2 385.988 386.207 385.995 386.215C386.016 386.235 386.031 386.259 386.04 386.286C386.05 386.313 386.053 386.342 386.05 386.37V387.45C386.053 387.478 386.05 387.507 386.04 387.534C386.031 387.561 386.016 387.585 385.995 387.606C385.975 387.626 385.951 387.641 385.924 387.651C385.897 387.66 385.868 387.663 385.84 387.66H383.21C383.199 387.658 383.188 387.659 383.177 387.663C383.167 387.666 383.157 387.672 383.15 387.68C383.142 387.688 383.136 387.697 383.133 387.708C383.131 387.712 383.13 387.717 383.13 387.722C383.129 387.728 383.129 387.734 383.13 387.74V389.74C383.129 389.745 383.129 389.75 383.129 389.755C383.13 389.761 383.131 389.767 383.133 389.773C383.136 389.783 383.142 389.793 383.15 389.8C383.157 389.808 383.167 389.814 383.177 389.818C383.188 389.821 383.199 389.822 383.21 389.82H387.26C387.288 389.817 387.317 389.82 387.344 389.83C387.371 389.839 387.395 389.854 387.416 389.875C387.436 389.895 387.451 389.919 387.46 389.946C387.47 389.973 387.473 390.002 387.47 390.03V391.11C387.47 391.26 387.4 391.33 387.26 391.33H381.57C381.43 391.33 381.36 391.26 381.36 391.11V382.81C381.357 382.782 381.36 382.753 381.369 382.726C381.375 382.711 381.382 382.696 381.391 382.682C381.398 382.672 381.406 382.663 381.414 382.655L381.422 382.647L381.428 382.642L381.434 382.637L381.444 382.631C381.45 382.626 381.457 382.622 381.464 382.619L381.476 382.613L381.486 382.61C381.513 382.6 381.542 382.597 381.57 382.6H387.26C387.288 382.597 387.317 382.6 387.344 382.61C387.371 382.619 387.395 382.634 387.416 382.655C387.436 382.675 387.451 382.699 387.46 382.726C387.463 382.732 387.464 382.739 387.466 382.745C387.471 382.767 387.472 382.788 387.47 382.81V383.89ZM407.37 391.1C407.37 391.25 407.44 391.32 407.58 391.32H408.93C408.992 391.32 409.041 391.306 409.075 391.278C409.118 391.242 409.14 391.183 409.14 391.1V382.8C409.143 382.772 409.14 382.743 409.13 382.716C409.127 382.705 409.122 382.695 409.117 382.686C409.108 382.671 409.098 382.657 409.085 382.645C409.065 382.624 409.041 382.609 409.014 382.6C408.987 382.59 408.958 382.587 408.93 382.59H407.58C407.552 382.587 407.523 382.59 407.496 382.6L407.484 382.604C407.47 382.61 407.457 382.617 407.445 382.626C407.438 382.632 407.431 382.638 407.424 382.645C407.404 382.665 407.389 382.689 407.379 382.716C407.375 382.728 407.372 382.741 407.37 382.753C407.369 382.762 407.369 382.772 407.369 382.781L407.369 382.792L407.37 382.8V391.1ZM412.14 391.32C412 391.32 411.93 391.25 411.93 391.1V382.8C411.927 382.772 411.93 382.743 411.939 382.716C411.949 382.689 411.964 382.665 411.984 382.645C412.005 382.624 412.029 382.609 412.056 382.6C412.083 382.59 412.112 382.587 412.14 382.59H413.44C413.456 382.59 413.471 382.591 413.487 382.594C413.505 382.596 413.522 382.601 413.539 382.607C413.555 382.612 413.569 382.619 413.583 382.627C413.611 382.642 413.636 382.662 413.657 382.685C413.669 382.699 413.68 382.714 413.69 382.73L416.84 387.91H416.89C416.895 387.901 416.898 387.891 416.898 387.88C416.898 387.87 416.895 387.859 416.89 387.85V382.8C416.886 382.771 416.89 382.741 416.9 382.713C416.91 382.685 416.926 382.66 416.947 382.64C416.969 382.62 416.995 382.605 417.023 382.596C417.034 382.592 417.045 382.59 417.057 382.589C417.074 382.587 417.092 382.587 417.11 382.59H418.43C418.446 382.588 418.463 382.588 418.479 382.591L418.492 382.593C418.499 382.595 418.507 382.597 418.514 382.6C418.541 382.609 418.565 382.624 418.586 382.645C418.606 382.665 418.621 382.689 418.63 382.716C418.64 382.743 418.643 382.772 418.64 382.8V391.1C418.64 391.25 418.57 391.32 418.43 391.32H417.15L417.134 391.319L417.117 391.318C417.076 391.314 417.036 391.301 417 391.28C416.991 391.275 416.982 391.269 416.973 391.263L416.963 391.254C416.933 391.231 416.909 391.203 416.89 391.17L413.74 385.93C413.729 385.925 413.717 385.922 413.705 385.922C413.693 385.922 413.681 385.925 413.67 385.93L413.667 385.94C413.665 385.948 413.664 385.955 413.664 385.963C413.663 385.975 413.666 385.988 413.67 386V391.14C413.67 391.29 413.6 391.36 413.46 391.36L412.14 391.32ZM425.43 391.321C425.44 391.321 425.45 391.321 425.46 391.32H428.54C429.108 391.333 429.671 391.22 430.19 390.99C430.639 390.793 431.021 390.47 431.29 390.06C431.554 389.645 431.69 389.162 431.68 388.67V385.23C431.689 384.742 431.553 384.262 431.29 383.85C431.024 383.44 430.64 383.12 430.19 382.93C429.673 382.692 429.109 382.575 428.54 382.59H425.46C425.431 382.585 425.401 382.587 425.373 382.596C425.345 382.605 425.319 382.62 425.297 382.64C425.276 382.66 425.26 382.685 425.25 382.713C425.24 382.741 425.236 382.771 425.24 382.8V391.1C425.237 391.13 425.24 391.16 425.25 391.188C425.253 391.194 425.255 391.2 425.258 391.206L425.264 391.218C425.273 391.234 425.284 391.249 425.297 391.263C425.308 391.273 425.319 391.282 425.331 391.29C425.344 391.298 425.358 391.305 425.372 391.31C425.391 391.316 425.411 391.32 425.43 391.321ZM427.09 389.81C427.02 389.81 427.02 389.73 427.02 389.73L426.98 384.23C426.98 384.16 427.05 384.16 427.05 384.16H428.55C428.735 384.146 428.921 384.174 429.094 384.241C429.267 384.309 429.423 384.414 429.55 384.55C429.793 384.825 429.922 385.183 429.91 385.55V388.42C429.914 388.789 429.779 389.147 429.53 389.42C429.413 389.55 429.27 389.652 429.109 389.719C428.948 389.787 428.774 389.818 428.6 389.81H427.09ZM440.39 383.89C440.393 383.918 440.39 383.947 440.38 383.974C440.371 384.001 440.356 384.025 440.336 384.046C440.315 384.066 440.291 384.081 440.264 384.091L440.255 384.093L440.247 384.096L440.233 384.099L440.217 384.101C440.205 384.102 440.192 384.101 440.18 384.1H436.13C436.116 384.1 436.104 384.1 436.093 384.102L436.087 384.103L436.083 384.104C436.077 384.105 436.073 384.107 436.069 384.11C436.057 384.12 436.05 384.137 436.05 384.17V386.08L436.049 386.089L436.049 386.097L436.05 386.104L436.053 386.113C436.056 386.123 436.062 386.133 436.07 386.14C436.077 386.148 436.087 386.154 436.097 386.158C436.108 386.161 436.119 386.162 436.13 386.16H438.76C438.788 386.157 438.817 386.16 438.844 386.17C438.871 386.179 438.895 386.194 438.916 386.215C438.924 386.223 438.932 386.233 438.939 386.243C438.948 386.257 438.955 386.271 438.96 386.286C438.963 386.295 438.966 386.304 438.968 386.313C438.971 386.332 438.972 386.351 438.97 386.37V387.45C438.973 387.478 438.97 387.507 438.96 387.534C438.951 387.561 438.936 387.585 438.916 387.606C438.895 387.626 438.871 387.641 438.844 387.651C438.817 387.66 438.788 387.663 438.76 387.66H436.13C436.119 387.658 436.108 387.659 436.097 387.663C436.087 387.666 436.077 387.672 436.07 387.68L436.065 387.685L436.062 387.689C436.058 387.695 436.055 387.701 436.053 387.708C436.049 387.718 436.048 387.729 436.05 387.74V389.74C436.048 389.751 436.049 389.762 436.053 389.773C436.056 389.783 436.062 389.793 436.07 389.8C436.077 389.808 436.087 389.814 436.097 389.818C436.108 389.821 436.119 389.822 436.13 389.82H440.18C440.208 389.817 440.237 389.82 440.264 389.83C440.272 389.833 440.281 389.836 440.288 389.84L440.301 389.847C440.306 389.85 440.311 389.854 440.316 389.857C440.323 389.862 440.329 389.868 440.336 389.875C440.356 389.895 440.371 389.919 440.38 389.946C440.39 389.973 440.393 390.002 440.39 390.03V391.11C440.39 391.201 440.364 391.262 440.313 391.297C440.28 391.319 440.235 391.33 440.18 391.33H434.49C434.35 391.33 434.28 391.26 434.28 391.11V382.81C434.278 382.796 434.278 382.781 434.28 382.767C434.282 382.753 434.285 382.739 434.289 382.726C434.293 382.717 434.296 382.709 434.301 382.7C434.31 382.683 434.321 382.668 434.334 382.655C434.355 382.634 434.379 382.619 434.406 382.61C434.417 382.606 434.428 382.603 434.44 382.601C434.457 382.599 434.473 382.598 434.49 382.6H440.18C440.208 382.597 440.237 382.6 440.264 382.61C440.291 382.619 440.315 382.634 440.336 382.655C440.356 382.675 440.371 382.699 440.38 382.726C440.39 382.753 440.393 382.782 440.39 382.81V383.89ZM448.09 386.772C448.095 386.763 448.102 386.756 448.11 386.75C448.454 386.601 448.743 386.349 448.937 386.028C449.13 385.707 449.219 385.334 449.19 384.96C449.19 383.37 448.19 382.57 446.19 382.57H443.1C443.016 382.57 442.957 382.592 442.921 382.636C442.893 382.671 442.88 382.719 442.88 382.78V391.08C442.879 391.089 442.878 391.098 442.877 391.106V391.119L442.878 391.125C442.879 391.14 442.881 391.155 442.886 391.17C442.895 391.199 442.911 391.226 442.933 391.247C442.954 391.269 442.981 391.285 443.01 391.294C443.039 391.303 443.07 391.305 443.1 391.3H446.29C447.063 391.333 447.826 391.119 448.47 390.69C448.747 390.474 448.967 390.193 449.112 389.872C449.257 389.552 449.321 389.201 449.3 388.85C449.324 388.436 449.223 388.024 449.011 387.668C448.799 387.312 448.485 387.027 448.11 386.85C448.105 386.847 448.101 386.843 448.097 386.838C448.094 386.835 448.092 386.832 448.09 386.828C448.088 386.824 448.086 386.82 448.085 386.815C448.084 386.81 448.083 386.805 448.083 386.8L448.083 386.795L448.085 386.787C448.086 386.781 448.088 386.776 448.09 386.772ZM444.66 384.17C444.66 384.14 444.664 384.123 444.672 384.113C444.682 384.1 444.701 384.1 444.73 384.1H446.19C446.522 384.082 446.849 384.185 447.11 384.39C447.221 384.482 447.308 384.599 447.365 384.731C447.423 384.863 447.448 385.006 447.44 385.15C447.441 385.184 447.441 385.218 447.439 385.252C447.435 385.3 447.428 385.348 447.417 385.395C447.413 385.413 447.408 385.431 447.403 385.448C447.399 385.462 447.394 385.476 447.389 385.49C447.381 385.513 447.372 385.536 447.362 385.559C447.334 385.621 447.299 385.68 447.259 385.734C447.249 385.748 447.238 385.761 447.228 385.774L447.21 385.794C447.179 385.828 447.146 385.861 447.11 385.89C446.847 386.092 446.52 386.191 446.19 386.17H444.73C444.66 386.17 444.66 386.14 444.66 386.09V384.17ZM447.2 389.51C446.943 389.715 446.619 389.819 446.29 389.8L444.73 389.76C444.716 389.76 444.705 389.757 444.696 389.751C444.69 389.748 444.685 389.744 444.681 389.739C444.678 389.736 444.675 389.732 444.673 389.729C444.668 389.72 444.665 389.711 444.663 389.704C444.66 389.69 444.66 389.68 444.66 389.68V387.68C444.66 387.664 444.661 387.651 444.663 387.641C444.665 387.629 444.668 387.62 444.672 387.614C444.683 387.6 444.702 387.6 444.73 387.6H446.28C446.614 387.58 446.942 387.687 447.2 387.9C447.225 387.923 447.249 387.947 447.271 387.973C447.287 387.99 447.301 388.008 447.316 388.027C447.323 388.036 447.329 388.045 447.336 388.054C447.382 388.119 447.421 388.189 447.451 388.264C447.506 388.402 447.53 388.551 447.52 388.7C447.526 388.85 447.501 389 447.446 389.139C447.391 389.279 447.307 389.405 447.2 389.51ZM456.736 391.305C456.724 391.301 456.712 391.296 456.701 391.29C456.69 391.284 456.68 391.278 456.67 391.272C456.626 391.242 456.591 391.199 456.57 391.15L455 387.76L454.997 387.752L454.994 387.744C454.988 387.731 454.978 387.72 454.967 387.713C454.96 387.708 454.952 387.704 454.944 387.702C454.933 387.699 454.921 387.698 454.91 387.7H453.77C453.763 387.699 453.756 387.699 453.75 387.7C453.746 387.7 453.741 387.701 453.737 387.703L453.731 387.705L453.725 387.708C453.719 387.711 453.714 387.715 453.71 387.72L453.704 387.726C453.699 387.732 453.695 387.74 453.693 387.748L453.691 387.753C453.69 387.756 453.69 387.76 453.689 387.763C453.689 387.769 453.689 387.774 453.69 387.78V391.1C453.69 391.25 453.62 391.32 453.48 391.32H452.13C451.99 391.32 451.92 391.25 451.92 391.1V382.79C451.919 382.783 451.919 382.777 451.919 382.77C451.919 382.762 451.919 382.754 451.92 382.745C451.922 382.732 451.925 382.719 451.929 382.706L451.934 382.695C451.936 382.689 451.939 382.683 451.942 382.678C451.947 382.67 451.952 382.662 451.958 382.654C451.963 382.647 451.968 382.641 451.974 382.635C451.995 382.614 452.019 382.599 452.046 382.59C452.056 382.586 452.066 382.583 452.077 382.582C452.094 382.579 452.112 382.578 452.13 382.58H455.67C456.162 382.567 456.648 382.684 457.08 382.92C457.48 383.124 457.808 383.445 458.02 383.84C458.254 384.258 458.371 384.731 458.36 385.21C458.374 385.73 458.223 386.241 457.93 386.67C457.64 387.077 457.226 387.379 456.75 387.53C456.745 387.546 456.745 387.564 456.75 387.58V387.63L458.41 391.07C458.415 391.083 458.419 391.097 458.42 391.111C458.422 391.135 458.419 391.158 458.41 391.18C458.409 391.199 458.404 391.218 458.395 391.235C458.387 391.252 458.375 391.268 458.36 391.28C458.341 391.286 458.321 391.289 458.301 391.289C458.273 391.291 458.246 391.287 458.22 391.28L456.82 391.32C456.791 391.319 456.763 391.314 456.736 391.305ZM453.82 384.1C453.77 384.1 453.74 384.1 453.74 384.17V386.27C453.74 386.32 453.74 386.34 453.82 386.34H455.46C455.593 386.346 455.725 386.329 455.85 386.293C455.942 386.266 456.03 386.228 456.113 386.181C456.183 386.141 456.249 386.094 456.31 386.04C456.37 385.988 456.423 385.929 456.468 385.864C456.51 385.805 456.546 385.742 456.574 385.674C456.633 385.534 456.659 385.382 456.65 385.23C456.659 385.078 456.633 384.926 456.574 384.786C456.547 384.723 456.515 384.663 456.476 384.607C456.429 384.538 456.373 384.475 456.31 384.42C456.197 384.313 456.063 384.23 455.917 384.175C455.771 384.12 455.616 384.095 455.46 384.1H453.82ZM462.32 391.05C462.857 391.327 463.456 391.465 464.06 391.45C464.668 391.485 465.275 391.371 465.83 391.12C466.321 390.87 466.728 390.48 467 390C467.291 389.482 467.437 388.894 467.42 388.3V385.63C467.431 385.059 467.286 384.495 467 384C466.721 383.514 466.298 383.126 465.79 382.89C465.257 382.612 464.661 382.474 464.06 382.49C463.456 382.475 462.857 382.613 462.32 382.89C461.837 383.139 461.434 383.521 461.16 383.99C460.882 384.488 460.74 385.05 460.75 385.62V388.29C460.742 388.869 460.883 389.441 461.16 389.95C461.437 390.417 461.839 390.798 462.32 391.05ZM464.253 389.945C464.189 389.951 464.124 389.952 464.06 389.95V390C463.849 390.002 463.641 389.959 463.448 389.874C463.255 389.79 463.082 389.666 462.94 389.51C462.797 389.354 462.686 389.171 462.614 388.972C462.542 388.773 462.51 388.562 462.52 388.35V385.61C462.515 385.503 462.52 385.397 462.536 385.292C462.552 385.188 462.578 385.087 462.614 384.988C462.646 384.9 462.685 384.814 462.732 384.733C462.791 384.632 462.86 384.537 462.94 384.45C463.084 384.3 463.259 384.182 463.452 384.105C463.564 384.06 463.68 384.029 463.799 384.013C463.885 384.001 463.973 383.996 464.06 384C464.268 383.99 464.476 384.025 464.669 384.103C464.862 384.181 465.036 384.299 465.18 384.45C465.323 384.606 465.434 384.789 465.506 384.988C465.578 385.187 465.61 385.398 465.6 385.61V388.35C465.61 388.562 465.578 388.773 465.506 388.972C465.434 389.171 465.323 389.354 465.18 389.51C465.033 389.656 464.858 389.771 464.666 389.846C464.533 389.898 464.394 389.931 464.253 389.945ZM473.19 391.42C472.598 391.431 472.012 391.3 471.48 391.04C471.007 390.806 470.612 390.442 470.34 389.99C470.062 389.514 469.92 388.971 469.93 388.42V382.8C469.93 382.66 470 382.59 470.15 382.59H471.49C471.64 382.59 471.71 382.66 471.71 382.8V388.44C471.701 388.636 471.732 388.832 471.801 389.016C471.87 389.2 471.975 389.368 472.11 389.51C472.404 389.779 472.792 389.923 473.19 389.91C473.298 389.915 473.406 389.907 473.511 389.888C473.598 389.872 473.683 389.849 473.765 389.818C473.949 389.75 474.117 389.645 474.26 389.51C474.4 389.37 474.509 389.203 474.581 389.019C474.603 388.963 474.622 388.906 474.636 388.848C474.67 388.715 474.685 388.578 474.68 388.44V382.8C474.679 382.79 474.678 382.78 474.679 382.77C474.68 382.752 474.683 382.734 474.689 382.716C474.699 382.689 474.714 382.665 474.734 382.645C474.747 382.632 474.762 382.621 474.777 382.612C474.786 382.607 474.796 382.603 474.806 382.6C474.833 382.59 474.862 382.587 474.89 382.59H476.24C476.268 382.587 476.297 382.59 476.324 382.6C476.351 382.609 476.375 382.624 476.395 382.645C476.416 382.665 476.431 382.689 476.44 382.716C476.45 382.743 476.453 382.772 476.45 382.8V388.42C476.454 388.979 476.298 389.527 476 390C475.731 390.454 475.334 390.819 474.86 391.05C474.34 391.303 473.768 391.43 473.19 391.42ZM478.86 391.32C478.906 391.331 478.954 391.331 479 391.32H480.45C480.503 391.324 480.557 391.311 480.603 391.284C480.649 391.258 480.686 391.218 480.71 391.17L482.32 388.39H482.37H482.42L484.02 391.17C484.044 391.22 484.083 391.261 484.131 391.287C484.159 391.303 484.189 391.313 484.22 391.318C484.243 391.322 484.267 391.322 484.29 391.32H485.73C485.776 391.333 485.824 391.333 485.87 391.32C485.885 391.308 485.897 391.292 485.906 391.275C485.914 391.258 485.919 391.239 485.92 391.22C485.934 391.185 485.934 391.145 485.92 391.11L483.53 387.04C483.52 387.007 483.52 386.973 483.53 386.94L485.92 382.88C485.925 382.864 485.928 382.847 485.928 382.83C485.929 382.81 485.926 382.79 485.92 382.77C485.921 382.751 485.916 382.731 485.907 382.714C485.899 382.696 485.886 382.681 485.87 382.67C485.836 382.657 485.799 382.654 485.763 382.661C485.752 382.663 485.741 382.666 485.73 382.67H484.29C484.256 382.667 484.222 382.67 484.189 382.679C484.169 382.684 484.15 382.692 484.131 382.703C484.083 382.729 484.044 382.77 484.02 382.82L482.42 385.61H482.37H482.32L480.72 382.82C480.711 382.799 480.699 382.779 480.685 382.762C480.666 382.738 480.642 382.717 480.615 382.702C480.568 382.675 480.514 382.663 480.46 382.67H479C478.955 382.654 478.905 382.654 478.86 382.67C478.844 382.681 478.831 382.696 478.823 382.714C478.818 382.724 478.814 382.734 478.812 382.745C478.811 382.753 478.81 382.762 478.81 382.77C478.808 382.783 478.806 382.797 478.805 382.811C478.804 382.834 478.806 382.857 478.81 382.88L481.2 386.94C481.21 386.973 481.21 387.007 481.2 387.04L478.81 391.11C478.8 391.146 478.8 391.184 478.81 391.22C478.811 391.239 478.816 391.258 478.825 391.275C478.833 391.292 478.845 391.308 478.86 391.32Z" fill="#404652"/>
<path d="M661.76 382.55H665.66" stroke="#74C2FF" stroke-width="0.25" stroke-miterlimit="10"/>
<path d="M661.76 327.63H665.66" stroke="#74C2FF" stroke-width="0.25" stroke-miterlimit="10"/>
<path d="M661.76 272.68H665.66" stroke="#74C2FF" stroke-width="0.25" stroke-miterlimit="10"/>
</g>
<defs>
<clipPath id="clip0">
<rect width="800.25" height="600.25" fill="white"/>
</clipPath>
</defs>
</svg>
