<svg width="800" height="600" viewBox="0 0 800 600" fill="none" xmlns="http://www.w3.org/2000/svg">
<path d="M500 0H0V599.63H500V0Z" fill="#404652"/>
<path d="M800 0H500V299.815H800V0Z" fill="#F76C4B"/>
<path d="M800 300.185H500V600H800V300.185Z" fill="#F7F7F7"/>
<path d="M293.08 288.582L250 264.507L206.9 288.492L227.13 299.815L206.92 311.068L250 335.123L293.1 311.138L272.87 299.815L293.08 288.582ZM250 267.935L286.9 288.582L250 309.149L213.1 288.502L250 267.935ZM286.9 311.128L250 331.695L213.1 311.048L230.22 301.514L250 312.577L269.81 301.584L286.9 311.128Z" fill="#F76C4B"/>
<path d="M687.4 409.637L653.92 390.909L620.4 409.567L636.11 418.352L620.4 427.107L653.88 445.825L687.4 427.167L671.69 418.382L687.4 409.637ZM653.91 393.577L682.61 409.627L653.88 425.618L625.18 409.567L653.91 393.577ZM682.61 427.167L653.88 443.157L625.18 427.107L638.5 419.741L653.88 428.346L669.29 419.741L682.61 427.167Z" fill="#F76C4B"/>
<path d="M572.54 504.599C572.925 504.457 573.254 504.197 573.48 503.855C573.707 503.514 573.819 503.109 573.8 502.7C573.8 501.231 572.8 500.421 571.18 500.421H568.27C568.248 500.42 568.226 500.423 568.206 500.431C568.185 500.438 568.166 500.45 568.15 500.465C568.134 500.48 568.122 500.498 568.113 500.518C568.104 500.538 568.1 500.559 568.1 500.581V508.976C568.098 508.999 568.102 509.022 568.11 509.043C568.118 509.064 568.13 509.083 568.147 509.1C568.163 509.116 568.182 509.128 568.203 509.136C568.225 509.144 568.247 509.148 568.27 509.146H571.27C571.603 509.188 571.942 509.157 572.262 509.057C572.582 508.956 572.877 508.788 573.127 508.563C573.376 508.338 573.575 508.062 573.708 507.754C573.841 507.446 573.907 507.113 573.9 506.778C573.928 506.327 573.81 505.88 573.566 505.5C573.321 505.121 572.962 504.83 572.54 504.669C572.54 504.669 572.49 504.619 572.54 504.599ZM569.06 501.191H571.18C571.402 501.167 571.626 501.19 571.838 501.259C572.05 501.329 572.245 501.442 572.409 501.592C572.574 501.743 572.705 501.926 572.793 502.131C572.881 502.336 572.924 502.557 572.92 502.78C572.919 502.998 572.872 503.213 572.781 503.412C572.69 503.61 572.558 503.786 572.393 503.929C572.228 504.072 572.035 504.178 571.825 504.24C571.616 504.302 571.396 504.319 571.18 504.289H569.06C569.06 504.289 569 504.289 569 504.219V501.221C569 501.221 569 501.191 569.06 501.191ZM571.27 508.357H569.06C569.052 508.358 569.043 508.358 569.035 508.356C569.027 508.354 569.019 508.349 569.013 508.343C569.007 508.337 569.003 508.33 569.001 508.322C568.998 508.313 568.998 508.305 569 508.297V505.099C569 505.099 569 505.029 569.06 505.029H571.22C571.449 505.006 571.681 505.032 571.899 505.106C572.117 505.179 572.317 505.299 572.486 505.456C572.654 505.613 572.787 505.804 572.876 506.016C572.964 506.229 573.007 506.457 573 506.688C573.012 506.915 572.976 507.143 572.892 507.355C572.809 507.567 572.681 507.759 572.517 507.917C572.353 508.075 572.156 508.197 571.941 508.272C571.726 508.348 571.497 508.377 571.27 508.357Z" fill="#404652"/>
<path d="M580.14 509.246C580.527 509.284 580.917 509.24 581.285 509.116C581.653 508.992 581.99 508.79 582.274 508.526C582.558 508.261 582.782 507.938 582.931 507.58C583.081 507.222 583.152 506.836 583.14 506.448V500.581C583.141 500.56 583.138 500.538 583.131 500.518C583.123 500.498 583.112 500.48 583.096 500.465C583.081 500.45 583.063 500.438 583.043 500.43C583.023 500.423 583.001 500.42 582.98 500.421H582.41C582.389 500.42 582.367 500.423 582.347 500.43C582.327 500.438 582.309 500.45 582.294 500.465C582.278 500.48 582.267 500.498 582.259 500.518C582.252 500.538 582.249 500.56 582.25 500.581V506.478C582.25 507.034 582.029 507.568 581.635 507.962C581.241 508.355 580.707 508.576 580.15 508.576C579.593 508.576 579.059 508.355 578.665 507.962C578.271 507.568 578.05 507.034 578.05 506.478V500.581C578.051 500.56 578.048 500.538 578.041 500.518C578.033 500.498 578.022 500.48 578.006 500.465C577.991 500.45 577.973 500.438 577.953 500.43C577.933 500.423 577.911 500.42 577.89 500.421H577.32C577.299 500.42 577.277 500.423 577.257 500.43C577.237 500.438 577.219 500.45 577.204 500.465C577.188 500.48 577.177 500.498 577.169 500.518C577.162 500.538 577.158 500.56 577.16 500.581V506.448C577.15 506.833 577.222 507.217 577.37 507.573C577.519 507.929 577.742 508.25 578.023 508.514C578.304 508.778 578.638 508.98 579.003 509.106C579.368 509.232 579.755 509.28 580.14 509.246Z" fill="#404652"/>
<path d="M591.83 509.146H592.41C592.54 509.146 592.59 509.066 592.54 508.956L590.66 505.138C590.66 505.138 590.66 505.078 590.66 505.068C591.177 504.964 591.639 504.677 591.962 504.261C592.285 503.844 592.447 503.326 592.42 502.8C592.438 502.48 592.387 502.16 592.272 501.861C592.157 501.562 591.98 501.29 591.752 501.065C591.524 500.839 591.251 500.664 590.951 500.551C590.651 500.439 590.33 500.391 590.01 500.411H586.79C586.768 500.408 586.745 500.41 586.724 500.417C586.703 500.424 586.683 500.435 586.667 500.451C586.651 500.466 586.638 500.485 586.63 500.506C586.622 500.526 586.618 500.549 586.62 500.571V508.976C586.619 508.999 586.622 509.021 586.63 509.043C586.638 509.064 586.65 509.083 586.667 509.099C586.683 509.115 586.702 509.128 586.723 509.136C586.745 509.144 586.767 509.147 586.79 509.146H587.35C587.372 509.146 587.394 509.141 587.414 509.133C587.434 509.124 587.452 509.112 587.467 509.096C587.482 509.08 587.493 509.061 587.501 509.04C587.508 509.02 587.511 508.998 587.51 508.976V505.188C587.512 505.172 587.521 505.156 587.534 505.145C587.547 505.134 587.563 505.128 587.58 505.128H589.68C589.709 505.136 589.734 505.154 589.75 505.178L591.59 509.016C591.61 509.061 591.644 509.099 591.687 509.123C591.731 509.146 591.781 509.154 591.83 509.146ZM587.62 501.151H589.94C590.37 501.151 590.782 501.321 591.086 501.625C591.389 501.929 591.56 502.34 591.56 502.77C591.56 503.199 591.389 503.611 591.086 503.915C590.782 504.218 590.37 504.389 589.94 504.389H587.62C587.62 504.389 587.55 504.389 587.55 504.329V501.211C587.558 501.2 587.568 501.191 587.581 501.185C587.593 501.18 587.607 501.178 587.62 501.181V501.151Z" fill="#404652"/>
<path d="M601.32 501.031V500.581C601.322 500.56 601.318 500.538 601.311 500.518C601.303 500.498 601.292 500.48 601.276 500.465C601.261 500.45 601.243 500.438 601.223 500.43C601.203 500.423 601.181 500.42 601.16 500.421H595.79C595.768 500.418 595.745 500.42 595.724 500.427C595.703 500.434 595.683 500.445 595.667 500.461C595.651 500.476 595.638 500.495 595.63 500.516C595.622 500.536 595.618 500.559 595.62 500.581V508.976C595.619 508.999 595.622 509.021 595.63 509.043C595.638 509.064 595.65 509.083 595.667 509.099C595.683 509.116 595.702 509.128 595.723 509.136C595.745 509.144 595.767 509.147 595.79 509.146H601.16C601.182 509.146 601.204 509.142 601.224 509.133C601.244 509.124 601.262 509.112 601.277 509.096C601.292 509.08 601.303 509.061 601.311 509.04C601.318 509.02 601.321 508.998 601.32 508.976V508.536C601.321 508.514 601.318 508.493 601.311 508.472C601.303 508.451 601.292 508.433 601.277 508.417C601.262 508.401 601.244 508.388 601.224 508.379C601.204 508.371 601.182 508.366 601.16 508.366H596.58C596.572 508.368 596.563 508.368 596.555 508.366C596.547 508.363 596.539 508.359 596.533 508.353C596.527 508.347 596.523 508.34 596.521 508.331C596.518 508.323 596.518 508.315 596.52 508.306V505.208C596.52 505.208 596.52 505.138 596.58 505.138H599.77C599.792 505.14 599.814 505.137 599.834 505.129C599.855 505.122 599.874 505.11 599.89 505.095C599.906 505.08 599.918 505.062 599.927 505.042C599.936 505.022 599.94 505 599.94 504.979V504.529C599.94 504.507 599.936 504.485 599.927 504.465C599.918 504.445 599.906 504.427 599.89 504.412C599.874 504.397 599.855 504.385 599.834 504.378C599.814 504.371 599.792 504.368 599.77 504.369H596.58C596.572 504.371 596.563 504.371 596.555 504.368C596.547 504.366 596.539 504.362 596.533 504.356C596.527 504.35 596.523 504.342 596.521 504.334C596.518 504.326 596.518 504.317 596.52 504.309V501.261C596.52 501.261 596.52 501.191 596.58 501.191H601.16C601.181 501.192 601.203 501.189 601.223 501.182C601.243 501.174 601.261 501.162 601.276 501.147C601.292 501.132 601.303 501.114 601.311 501.094C601.318 501.074 601.322 501.052 601.32 501.031Z" fill="#404652"/>
<path d="M609.74 509.146H610.35C610.374 509.149 610.397 509.145 610.419 509.135C610.441 509.125 610.459 509.11 610.472 509.09C610.486 509.071 610.494 509.048 610.495 509.024C610.496 509.001 610.491 508.977 610.48 508.956L607.7 500.561C607.695 500.521 607.675 500.483 607.643 500.457C607.611 500.431 607.571 500.418 607.53 500.421H606.72C606.679 500.418 606.639 500.431 606.607 500.457C606.575 500.483 606.555 500.521 606.55 500.561L603.78 508.956C603.78 509.066 603.78 509.146 603.92 509.146H604.52C604.562 509.149 604.604 509.136 604.637 509.111C604.67 509.085 604.693 509.047 604.7 509.006L605.19 507.487C605.19 507.487 605.19 507.437 605.25 507.437H609C609 507.437 609 507.437 609.06 507.487L609.57 509.006C609.575 509.047 609.595 509.084 609.627 509.11C609.659 509.136 609.699 509.149 609.74 509.146ZM605.46 506.687L607.09 501.591C607.09 501.531 607.15 501.531 607.16 501.591L608.8 506.687C608.8 506.737 608.8 506.767 608.8 506.767H605.57C605.559 506.782 605.543 506.792 605.526 506.795C605.508 506.797 605.49 506.793 605.475 506.782C605.46 506.772 605.451 506.756 605.448 506.738C605.445 506.72 605.449 506.702 605.46 506.687Z" fill="#404652"/>
<path d="M616.21 509.246C616.596 509.283 616.986 509.237 617.353 509.112C617.72 508.988 618.057 508.786 618.34 508.522C618.624 508.257 618.848 507.936 618.998 507.578C619.148 507.22 619.22 506.835 619.21 506.448V500.581C619.211 500.56 619.208 500.538 619.201 500.518C619.193 500.498 619.182 500.48 619.166 500.465C619.151 500.45 619.133 500.438 619.113 500.43C619.093 500.423 619.071 500.42 619.05 500.421H618.48C618.459 500.42 618.437 500.423 618.417 500.43C618.397 500.438 618.379 500.45 618.364 500.465C618.348 500.48 618.337 500.498 618.329 500.518C618.322 500.538 618.318 500.56 618.32 500.581V506.478C618.283 507.01 618.045 507.509 617.655 507.874C617.264 508.238 616.749 508.441 616.215 508.441C615.681 508.441 615.166 508.238 614.775 507.874C614.385 507.509 614.147 507.01 614.11 506.478V500.581C614.111 500.56 614.108 500.538 614.101 500.518C614.093 500.498 614.082 500.48 614.066 500.465C614.051 500.45 614.033 500.438 614.013 500.43C613.993 500.423 613.971 500.42 613.95 500.421H613.38C613.359 500.42 613.337 500.423 613.317 500.43C613.297 500.438 613.279 500.45 613.264 500.465C613.248 500.48 613.237 500.498 613.229 500.518C613.222 500.538 613.218 500.56 613.22 500.581V506.448C613.21 506.834 613.282 507.219 613.431 507.575C613.58 507.932 613.804 508.253 614.086 508.518C614.369 508.782 614.704 508.984 615.07 509.109C615.436 509.235 615.825 509.281 616.21 509.246Z" fill="#404652"/>
<path d="M626.31 509.146C626.17 509.146 626.1 509.076 626.1 508.926V500.631C626.097 500.603 626.1 500.574 626.11 500.547C626.119 500.52 626.134 500.496 626.155 500.476C626.175 500.456 626.199 500.44 626.226 500.431C626.253 500.421 626.282 500.418 626.31 500.421H629.39C629.959 500.407 630.523 500.523 631.04 500.761C631.494 500.947 631.88 501.267 632.148 501.677C632.416 502.088 632.552 502.57 632.54 503.06V506.498C632.55 506.989 632.415 507.472 632.15 507.887C631.878 508.297 631.492 508.62 631.04 508.816C630.521 509.046 629.958 509.159 629.39 509.146H626.31ZM627.87 507.557C627.868 507.568 627.869 507.579 627.873 507.589C627.876 507.6 627.882 507.609 627.89 507.617C627.898 507.625 627.907 507.631 627.918 507.634C627.928 507.638 627.939 507.639 627.95 507.637H629.46C629.634 507.643 629.807 507.611 629.968 507.544C630.128 507.476 630.272 507.375 630.39 507.247C630.635 506.973 630.767 506.616 630.76 506.248V503.38C630.772 503.013 630.643 502.655 630.4 502.38C630.274 502.244 630.118 502.138 629.945 502.071C629.772 502.003 629.585 501.976 629.4 501.99H628C627.95 501.99 627.92 501.99 627.92 502.06L627.87 507.557Z" fill="#404652"/>
<path d="M641.25 501.691C641.254 501.72 641.25 501.75 641.24 501.778C641.23 501.805 641.214 501.83 641.193 501.851C641.171 501.871 641.145 501.886 641.117 501.895C641.089 501.904 641.059 501.905 641.03 501.901H637.03C636.98 501.901 636.96 501.901 636.96 501.971V503.879C636.96 503.879 636.96 503.959 637.03 503.959H639.66C639.688 503.956 639.717 503.959 639.744 503.969C639.771 503.978 639.795 503.994 639.816 504.014C639.836 504.034 639.851 504.058 639.861 504.085C639.87 504.112 639.873 504.141 639.87 504.169V505.249C639.873 505.277 639.87 505.306 639.861 505.332C639.851 505.359 639.836 505.384 639.816 505.404C639.795 505.424 639.771 505.439 639.744 505.449C639.717 505.458 639.688 505.462 639.66 505.458H637C636.95 505.458 636.93 505.458 636.93 505.538V507.537C636.93 507.587 636.93 507.617 637 507.617H641C641.029 507.612 641.059 507.614 641.087 507.623C641.115 507.632 641.141 507.647 641.163 507.667C641.184 507.687 641.2 507.712 641.21 507.74C641.22 507.768 641.224 507.798 641.22 507.827V508.906C641.223 508.936 641.22 508.966 641.21 508.994C641.2 509.022 641.184 509.048 641.163 509.069C641.141 509.09 641.116 509.106 641.088 509.116C641.06 509.126 641.03 509.129 641 509.126H635.32C635.29 509.131 635.259 509.129 635.23 509.12C635.201 509.111 635.174 509.095 635.153 509.073C635.131 509.052 635.115 509.025 635.106 508.996C635.097 508.967 635.095 508.936 635.1 508.906V500.611C635.1 500.472 635.17 500.402 635.32 500.402H641C641.029 500.397 641.059 500.399 641.087 500.407C641.115 500.416 641.141 500.431 641.163 500.451C641.184 500.472 641.2 500.497 641.21 500.525C641.22 500.552 641.224 500.582 641.22 500.611L641.25 501.691Z" fill="#404652"/>
<path d="M646.72 509.246C646.127 509.258 645.537 509.146 644.99 508.916C644.531 508.728 644.135 508.412 643.85 508.007C643.578 507.603 643.438 507.124 643.45 506.638V506.428C643.447 506.399 643.45 506.371 643.46 506.344C643.469 506.317 643.484 506.292 643.504 506.272C643.525 506.252 643.549 506.237 643.576 506.227C643.603 506.218 643.632 506.215 643.66 506.218H645C645.14 506.218 645.21 506.268 645.21 506.378V506.548C645.209 506.717 645.25 506.883 645.331 507.032C645.411 507.18 645.528 507.306 645.67 507.397C646.026 507.637 646.451 507.757 646.88 507.737C647.237 507.772 647.594 507.672 647.88 507.457C647.981 507.372 648.061 507.267 648.116 507.148C648.172 507.029 648.2 506.899 648.2 506.767C648.204 506.675 648.189 506.582 648.154 506.496C648.12 506.41 648.067 506.332 648 506.268C647.849 506.109 647.665 505.986 647.46 505.908C647.23 505.798 646.87 505.648 646.37 505.468C645.876 505.308 645.395 505.111 644.93 504.879C644.543 504.683 644.202 504.407 643.93 504.069C643.653 503.701 643.512 503.25 643.53 502.79C643.52 502.324 643.656 501.866 643.92 501.481C644.193 501.099 644.567 500.801 645 500.621C646.062 500.195 647.248 500.195 648.31 500.621C648.782 500.82 649.188 501.15 649.48 501.571C649.767 501.976 649.918 502.463 649.91 502.96V503.09C649.91 503.23 649.84 503.3 649.69 503.3H648.37C648.23 503.3 648.16 503.3 648.16 503.17V503.05C648.16 502.878 648.12 502.708 648.044 502.554C647.968 502.399 647.857 502.265 647.72 502.16C647.385 501.897 646.965 501.765 646.54 501.791C646.208 501.767 645.877 501.855 645.6 502.04C645.497 502.121 645.414 502.224 645.359 502.342C645.303 502.46 645.276 502.59 645.28 502.72C645.272 502.915 645.34 503.104 645.47 503.25C645.627 503.416 645.818 503.545 646.03 503.629C646.422 503.8 646.823 503.95 647.23 504.079C647.81 504.299 648.23 504.489 648.62 504.659C648.982 504.824 649.297 505.074 649.54 505.388C649.832 505.753 649.981 506.211 649.96 506.678C649.967 507.153 649.823 507.618 649.55 508.007C649.274 508.402 648.888 508.708 648.44 508.886C647.898 509.125 647.312 509.248 646.72 509.246Z" fill="#404652"/>
<path d="M655.42 509.246C654.83 509.259 654.244 509.147 653.7 508.916C653.237 508.731 652.837 508.415 652.55 508.007C652.278 507.603 652.138 507.124 652.15 506.638V506.428C652.147 506.399 652.15 506.371 652.16 506.344C652.169 506.317 652.184 506.292 652.205 506.272C652.225 506.252 652.249 506.237 652.276 506.227C652.303 506.218 652.332 506.215 652.36 506.218H653.68C653.83 506.218 653.9 506.268 653.9 506.378V506.548C653.898 506.716 653.938 506.882 654.016 507.03C654.095 507.178 654.21 507.305 654.35 507.397C654.706 507.637 655.131 507.757 655.56 507.737C655.917 507.772 656.274 507.672 656.56 507.457C656.663 507.374 656.747 507.269 656.804 507.15C656.861 507.031 656.891 506.9 656.89 506.767C656.893 506.674 656.875 506.581 656.839 506.495C656.803 506.409 656.749 506.331 656.68 506.268C656.529 506.109 656.345 505.986 656.14 505.908C655.785 505.742 655.421 505.596 655.05 505.468C654.558 505.31 654.08 505.113 653.62 504.879C653.232 504.684 652.891 504.408 652.62 504.069C652.349 503.699 652.208 503.249 652.22 502.79C652.21 502.324 652.346 501.866 652.61 501.481C652.883 501.099 653.257 500.801 653.69 500.621C654.752 500.195 655.938 500.195 657 500.621C657.472 500.82 657.878 501.15 658.17 501.571C658.462 501.974 658.613 502.462 658.6 502.96V503.09C658.603 503.118 658.6 503.147 658.591 503.174C658.581 503.201 658.566 503.225 658.546 503.245C658.525 503.265 658.501 503.281 658.474 503.29C658.447 503.3 658.418 503.303 658.39 503.3H657.06C656.92 503.3 656.85 503.3 656.85 503.17V503.05C656.85 502.878 656.81 502.708 656.734 502.554C656.658 502.399 656.547 502.265 656.41 502.16C656.076 501.895 655.656 501.763 655.23 501.791C654.901 501.769 654.574 501.857 654.3 502.04C654.194 502.118 654.108 502.221 654.051 502.339C653.993 502.458 653.966 502.588 653.97 502.72C653.962 502.915 654.03 503.104 654.16 503.25C654.317 503.416 654.508 503.545 654.72 503.629C655.112 503.8 655.513 503.95 655.92 504.079C656.51 504.299 656.97 504.489 657.32 504.659C657.678 504.824 657.991 505.075 658.23 505.388C658.522 505.753 658.671 506.211 658.65 506.678C658.66 507.152 658.52 507.617 658.25 508.007C657.97 508.403 657.581 508.708 657.13 508.886C656.591 509.124 656.009 509.246 655.42 509.246Z" fill="#404652"/>
<path d="M661.35 509.146C661.21 509.146 661.14 509.076 661.14 508.926V500.631C661.137 500.603 661.14 500.574 661.15 500.547C661.159 500.52 661.174 500.496 661.195 500.476C661.215 500.456 661.239 500.44 661.266 500.431C661.293 500.421 661.322 500.418 661.35 500.421H662.7C662.728 500.418 662.757 500.421 662.784 500.431C662.811 500.44 662.835 500.456 662.856 500.476C662.876 500.496 662.891 500.52 662.901 500.547C662.91 500.574 662.913 500.603 662.91 500.631V508.926C662.91 509.076 662.84 509.146 662.7 509.146H661.35Z" fill="#404652"/>
<path d="M665.92 509.146C665.89 509.151 665.859 509.149 665.83 509.14C665.801 509.131 665.774 509.115 665.753 509.093C665.731 509.072 665.715 509.045 665.706 509.016C665.697 508.987 665.695 508.956 665.7 508.926V500.631C665.7 500.491 665.77 500.421 665.92 500.421H667.21C667.26 500.421 667.31 500.434 667.354 500.458C667.397 500.483 667.434 500.518 667.46 500.561L670.61 505.738C670.61 505.738 670.61 505.788 670.61 505.738C670.614 505.729 670.617 505.719 670.617 505.708C670.617 505.698 670.614 505.688 670.61 505.678V500.591C670.607 500.563 670.61 500.534 670.62 500.507C670.629 500.481 670.644 500.456 670.664 500.436C670.685 500.416 670.709 500.4 670.736 500.391C670.763 500.382 670.792 500.378 670.82 500.382H672.14C672.169 500.377 672.199 500.379 672.227 500.387C672.255 500.396 672.281 500.411 672.303 500.431C672.324 500.452 672.34 500.477 672.35 500.505C672.36 500.532 672.364 500.562 672.36 500.591V508.886C672.363 508.916 672.36 508.946 672.35 508.974C672.34 509.002 672.324 509.028 672.303 509.049C672.281 509.07 672.256 509.086 672.228 509.096C672.2 509.106 672.17 509.109 672.14 509.106H671C670.949 509.105 670.899 509.091 670.855 509.065C670.811 509.039 670.775 509.001 670.75 508.956L667.59 503.719C667.581 503.715 667.57 503.713 667.56 503.713C667.55 503.713 667.539 503.715 667.53 503.719C667.53 503.719 667.53 503.719 667.53 503.789V508.926C667.53 509.076 667.46 509.146 667.32 509.146H665.92Z" fill="#404652"/>
<path d="M679.23 509.146C679.09 509.146 679.02 509.076 679.02 508.926V500.631C679.017 500.603 679.02 500.574 679.029 500.547C679.039 500.52 679.054 500.496 679.074 500.476C679.095 500.456 679.119 500.44 679.146 500.431C679.173 500.421 679.202 500.418 679.23 500.421H682.31C682.879 500.407 683.443 500.523 683.96 500.761C684.414 500.947 684.8 501.267 685.068 501.677C685.336 502.088 685.472 502.57 685.46 503.06V506.498C685.47 506.989 685.334 507.472 685.07 507.887C684.798 508.297 684.412 508.62 683.96 508.816C683.441 509.046 682.878 509.159 682.31 509.146H679.23ZM680.79 507.557C680.788 507.568 680.789 507.579 680.793 507.589C680.796 507.6 680.802 507.609 680.81 507.617C680.817 507.625 680.827 507.631 680.837 507.634C680.848 507.638 680.859 507.639 680.87 507.637H682.37C682.546 507.644 682.721 507.613 682.883 507.546C683.045 507.478 683.191 507.376 683.31 507.247C683.555 506.973 683.687 506.616 683.68 506.248V503.38C683.692 503.013 683.563 502.655 683.32 502.38C683.193 502.245 683.037 502.139 682.864 502.072C682.691 502.004 682.505 501.976 682.32 501.99H680.83C680.83 501.99 680.75 501.99 680.75 502.06L680.79 507.557Z" fill="#404652"/>
<path d="M694.16 501.691C694.163 501.719 694.16 501.748 694.151 501.774C694.141 501.801 694.126 501.826 694.106 501.846C694.085 501.866 694.061 501.881 694.034 501.891C694.007 501.9 693.978 501.904 693.95 501.9H689.9C689.9 501.9 689.82 501.9 689.82 501.97V503.879C689.818 503.89 689.819 503.901 689.823 503.912C689.826 503.922 689.832 503.932 689.84 503.939C689.848 503.947 689.857 503.953 689.868 503.957C689.878 503.96 689.889 503.961 689.9 503.959H692.53C692.558 503.956 692.587 503.959 692.614 503.969C692.641 503.978 692.665 503.993 692.686 504.014C692.706 504.034 692.721 504.058 692.731 504.085C692.74 504.112 692.743 504.141 692.74 504.169V505.248C692.743 505.277 692.74 505.305 692.731 505.332C692.721 505.359 692.706 505.384 692.686 505.404C692.665 505.424 692.641 505.439 692.614 505.449C692.587 505.458 692.558 505.461 692.53 505.458H689.9C689.889 505.457 689.878 505.457 689.868 505.461C689.857 505.464 689.848 505.47 689.84 505.478C689.832 505.486 689.826 505.495 689.823 505.506C689.819 505.516 689.818 505.527 689.82 505.538V507.537C689.818 507.548 689.819 507.559 689.823 507.569C689.826 507.58 689.832 507.589 689.84 507.597C689.848 507.605 689.857 507.611 689.868 507.614C689.878 507.618 689.889 507.619 689.9 507.617H694C694.028 507.614 694.057 507.617 694.084 507.626C694.111 507.636 694.135 507.651 694.156 507.671C694.176 507.691 694.191 507.716 694.201 507.743C694.21 507.77 694.213 507.798 694.21 507.827V508.906C694.21 509.056 694.14 509.126 694 509.126H688.31C688.17 509.126 688.1 509.056 688.1 508.906V500.611C688.097 500.583 688.1 500.554 688.11 500.527C688.119 500.5 688.134 500.476 688.155 500.456C688.175 500.436 688.199 500.42 688.226 500.411C688.253 500.401 688.282 500.398 688.31 500.401H694C694.028 500.398 694.057 500.401 694.084 500.411C694.111 500.42 694.135 500.436 694.156 500.456C694.176 500.476 694.191 500.5 694.201 500.527C694.21 500.554 694.213 500.583 694.21 500.611L694.16 501.691Z" fill="#404652"/>
<path d="M701.89 504.579C701.877 504.579 701.864 504.584 701.855 504.594C701.845 504.603 701.84 504.616 701.84 504.629C701.84 504.642 701.845 504.655 701.855 504.664C701.864 504.674 701.877 504.679 701.89 504.679C702.264 504.856 702.577 505.141 702.787 505.497C702.997 505.854 703.096 506.265 703.07 506.678C703.091 507.028 703.027 507.379 702.882 507.699C702.737 508.02 702.517 508.3 702.24 508.517C701.597 508.947 700.833 509.16 700.06 509.126H696.87C696.84 509.129 696.81 509.126 696.782 509.116C696.754 509.106 696.729 509.09 696.707 509.069C696.686 509.048 696.67 509.022 696.66 508.994C696.65 508.966 696.647 508.936 696.65 508.906V500.611C696.647 500.582 696.65 500.552 696.66 500.525C696.67 500.497 696.686 500.472 696.707 500.451C696.729 500.431 696.755 500.416 696.783 500.407C696.811 500.399 696.841 500.397 696.87 500.402H700C702 500.402 703 501.201 703 502.79C703.025 503.167 702.931 503.542 702.732 503.862C702.533 504.183 702.239 504.434 701.89 504.579ZM698.5 501.931C698.5 501.931 698.43 501.931 698.43 502.001V503.919C698.43 503.919 698.43 503.999 698.5 503.999H700C700.331 504.022 700.658 503.922 700.92 503.719C701.028 503.63 701.115 503.517 701.172 503.388C701.229 503.26 701.256 503.12 701.25 502.98C701.258 502.836 701.233 502.693 701.175 502.561C701.118 502.429 701.031 502.312 700.92 502.22C700.662 502.009 700.333 501.906 700 501.931H698.5ZM700.06 507.627C700.389 507.645 700.713 507.542 700.97 507.337C701.083 507.236 701.171 507.111 701.228 506.97C701.285 506.83 701.31 506.679 701.3 506.528C701.308 506.378 701.283 506.229 701.226 506.09C701.169 505.952 701.081 505.828 700.97 505.728C700.713 505.515 700.384 505.407 700.05 505.428H698.5C698.5 505.428 698.43 505.428 698.43 505.508V507.507C698.43 507.557 698.43 507.587 698.5 507.587L700.06 507.627Z" fill="#404652"/>
<path d="M710.59 509.146C710.537 509.143 710.485 509.126 710.441 509.096C710.397 509.066 710.362 509.025 710.34 508.976L708.8 505.588C708.792 505.571 708.78 505.556 708.764 505.545C708.748 505.534 708.729 505.529 708.71 505.528H707.56C707.56 505.528 707.49 505.528 707.49 505.608V508.926C707.495 508.956 707.493 508.987 707.484 509.016C707.475 509.045 707.459 509.072 707.437 509.093C707.416 509.115 707.389 509.131 707.36 509.14C707.331 509.149 707.3 509.151 707.27 509.146H705.93C705.9 509.151 705.869 509.149 705.84 509.14C705.811 509.131 705.784 509.115 705.763 509.093C705.741 509.072 705.725 509.045 705.716 509.016C705.707 508.987 705.705 508.956 705.71 508.926V500.621C705.71 500.481 705.78 500.411 705.93 500.411H709.46C709.952 500.398 710.438 500.515 710.87 500.751C711.272 500.951 711.601 501.273 711.81 501.671C712.044 502.088 712.161 502.561 712.15 503.04C712.163 503.558 712.016 504.067 711.73 504.499C711.436 504.906 711.019 505.207 710.54 505.358C710.535 505.375 710.535 505.392 710.54 505.408L712.2 508.846C712.21 508.882 712.21 508.92 712.2 508.956C712.201 508.976 712.197 508.995 712.189 509.013C712.18 509.031 712.167 509.045 712.15 509.056C712.107 509.068 712.063 509.068 712.02 509.056L710.59 509.146ZM707.59 501.93C707.59 501.93 707.52 501.93 707.52 502V504.099C707.52 504.099 707.52 504.169 707.59 504.169H709.23C709.542 504.184 709.847 504.077 710.08 503.869C710.195 503.769 710.285 503.644 710.344 503.504C710.403 503.364 710.429 503.212 710.42 503.06C710.429 502.908 710.403 502.756 710.344 502.616C710.285 502.475 710.195 502.35 710.08 502.25C709.967 502.143 709.834 502.059 709.688 502.004C709.542 501.949 709.386 501.924 709.23 501.93H707.59Z" fill="#404652"/>
<path d="M717.83 509.276C717.226 509.288 716.628 509.151 716.09 508.876C715.607 508.626 715.207 508.24 714.94 507.767C714.654 507.265 714.509 506.695 714.52 506.118V503.449C714.509 502.878 714.654 502.315 714.94 501.82C715.207 501.35 715.607 500.967 716.09 500.721C716.628 500.446 717.226 500.309 717.83 500.321C718.434 500.307 719.033 500.444 719.57 500.721C720.058 500.967 720.465 501.348 720.74 501.82C721.018 502.318 721.16 502.88 721.15 503.449V506.118C721.159 506.694 721.018 507.262 720.74 507.767C720.466 508.247 720.06 508.639 719.57 508.896C719.028 509.157 718.432 509.287 717.83 509.276ZM717.83 507.767C718.036 507.775 718.242 507.742 718.434 507.668C718.627 507.594 718.803 507.481 718.95 507.337C719.096 507.183 719.21 507.001 719.284 506.802C719.358 506.602 719.391 506.39 719.38 506.178V503.439C719.391 503.227 719.358 503.015 719.284 502.816C719.21 502.616 719.096 502.434 718.95 502.28C718.807 502.129 718.632 502.011 718.439 501.933C718.246 501.856 718.038 501.821 717.83 501.83C717.622 501.823 717.415 501.859 717.222 501.936C717.029 502.014 716.855 502.131 716.71 502.28C716.568 502.437 716.459 502.62 716.389 502.819C716.319 503.018 716.288 503.229 716.3 503.439V506.178C716.288 506.388 716.319 506.599 716.389 506.798C716.459 506.997 716.568 507.18 716.71 507.337C716.857 507.481 717.033 507.594 717.225 507.668C717.418 507.742 717.624 507.775 717.83 507.767Z" fill="#404652"/>
<path d="M727 509.246C726.408 509.255 725.822 509.125 725.29 508.866C724.821 508.627 724.427 508.264 724.15 507.817C723.875 507.34 723.737 506.798 723.75 506.248V500.631C723.747 500.603 723.75 500.574 723.759 500.547C723.769 500.52 723.784 500.496 723.804 500.476C723.825 500.456 723.849 500.44 723.876 500.431C723.903 500.421 723.932 500.418 723.96 500.421H725.31C725.338 500.418 725.367 500.421 725.394 500.431C725.421 500.44 725.445 500.456 725.465 500.476C725.486 500.496 725.501 500.52 725.51 500.547C725.52 500.574 725.523 500.603 725.52 500.631V506.268C725.511 506.464 725.542 506.659 725.611 506.843C725.68 507.027 725.785 507.195 725.92 507.337C726.214 507.606 726.602 507.749 727 507.737C727.196 507.745 727.392 507.714 727.575 507.645C727.759 507.576 727.927 507.472 728.07 507.337C728.21 507.197 728.319 507.03 728.391 506.846C728.464 506.662 728.497 506.465 728.49 506.268V500.631C728.487 500.603 728.49 500.574 728.499 500.547C728.509 500.52 728.524 500.496 728.544 500.476C728.565 500.456 728.589 500.44 728.616 500.431C728.643 500.421 728.672 500.418 728.7 500.421H730C730.028 500.418 730.057 500.421 730.084 500.431C730.111 500.44 730.135 500.456 730.155 500.476C730.176 500.496 730.191 500.52 730.2 500.547C730.21 500.574 730.213 500.603 730.21 500.631V506.248C730.22 506.798 730.078 507.341 729.8 507.817C729.527 508.271 729.127 508.635 728.65 508.866C728.137 509.121 727.572 509.251 727 509.246Z" fill="#404652"/>
<path d="M732.78 509.146C732.734 509.159 732.686 509.159 732.64 509.146C732.632 509.131 732.628 509.113 732.628 509.096C732.628 509.079 732.632 509.062 732.64 509.046C732.63 509.01 732.63 508.972 732.64 508.936L735.03 504.869C735.04 504.836 735.04 504.801 735.03 504.769L732.62 500.691C732.612 500.655 732.612 500.618 732.62 500.581C732.611 500.566 732.607 500.549 732.607 500.531C732.607 500.514 732.611 500.497 732.62 500.481C732.665 500.465 732.715 500.465 732.76 500.481H734.21C734.265 500.476 734.32 500.487 734.369 500.514C734.417 500.541 734.456 500.582 734.48 500.631L736.08 503.42C736.08 503.433 736.085 503.446 736.095 503.455C736.104 503.464 736.117 503.47 736.13 503.47C736.143 503.47 736.156 503.464 736.165 503.455C736.175 503.446 736.18 503.433 736.18 503.42L737.77 500.631C737.794 500.582 737.833 500.541 737.881 500.514C737.93 500.487 737.985 500.476 738.04 500.481H739.48C739.525 500.465 739.575 500.465 739.62 500.481C739.637 500.491 739.651 500.506 739.66 500.524C739.669 500.542 739.673 500.562 739.67 500.581C739.678 500.618 739.678 500.655 739.67 500.691L737.27 504.689C737.26 504.721 737.26 504.756 737.27 504.789L739.66 508.856C739.67 508.892 739.67 508.93 739.66 508.966C739.661 508.986 739.658 509.005 739.649 509.023C739.64 509.041 739.627 509.055 739.61 509.066C739.564 509.079 739.516 509.079 739.47 509.066H738.03C737.975 509.072 737.92 509.06 737.872 509.034C737.823 509.007 737.784 508.966 737.76 508.916L736.17 506.138C736.17 506.125 736.165 506.112 736.155 506.103C736.146 506.093 736.133 506.088 736.12 506.088C736.107 506.088 736.094 506.093 736.085 506.103C736.075 506.112 736.07 506.125 736.07 506.138L734.46 508.916C734.436 508.966 734.397 509.007 734.349 509.034C734.3 509.06 734.245 509.072 734.19 509.066L732.78 509.146Z" fill="#404652"/>
<path opacity="0.2" d="M800 149.098L691.93 209.261L559.14 134.997L620.76 100.698L691.91 140.493L763.23 100.798L800 121.365V109.003L774.3 94.6316L800 80.3205V67.9581L691.93 128.121L559.14 53.8668L655.92 0H633.74L537 53.8468L609.7 94.5117L537 134.977L691.91 221.623L800 161.45V149.098ZM800 27.8728L750.16 0H728.06L800 40.2352V27.8728Z" fill="#F7F7F7"/>
</svg>
