<svg xmlns="http://www.w3.org/2000/svg" viewBox="0 0 800 600"><defs><style>.cls-1{fill:#59575b;}.cls-2{fill:#f7f7f7;}.cls-3{opacity:0.5;}</style></defs><title>vis-4</title><g id="Calque_2" data-name="Calque 2"><g id="Calque_2-2" data-name="Calque 2"><rect class="cls-1" width="800" height="600"/><path class="cls-2" d="M234.34,315l.11.2h.67A15.15,15.15,0,0,0,250.19,300v-1.1H234.75v2.19H248A13,13,0,0,1,235.78,313l-13.67-27.65-.17-.33-.33.16-1.29.65L220,286l.16.32Z"/><path class="cls-2" d="M316.43,292.27l-6.54,14.91h-2.11l-6.56-14.91h2.3l5.37,12.25,5.41-12.25Z"/><path class="cls-2" d="M337.25,305.33v1.85H326.43V292.27H337v1.86h-8.39v4.58H336v1.81h-7.48v4.81Z"/><path class="cls-2" d="M359.08,299.64h2v5.82a8.85,8.85,0,0,1-5.64,1.89c-4.58,0-8-3.21-8-7.62s3.37-7.63,8-7.63a7.5,7.5,0,0,1,5.73,2.3l-1.32,1.32A5.93,5.93,0,0,0,355.6,294a5.73,5.73,0,1,0,0,11.46,6.35,6.35,0,0,0,3.5-1Z"/><path class="cls-2" d="M372.08,299.73a7.93,7.93,0,1,1,7.95,7.62A7.58,7.58,0,0,1,372.08,299.73Zm13.72,0a5.8,5.8,0,1,0-5.77,5.73A5.6,5.6,0,0,0,385.8,299.73Z"/><path class="cls-2" d="M412.12,303.16c0,2.55-1.94,4-5.71,4H399.3V292.27H406c3.43,0,5.35,1.45,5.35,3.86a3.52,3.52,0,0,1-2,3.32A3.61,3.61,0,0,1,412.12,303.16ZM401.42,294v4.77h4.37c2.17,0,3.41-.81,3.41-2.39S408,294,405.79,294Zm8.55,9c0-1.73-1.28-2.5-3.65-2.5h-4.9v5h4.9C408.69,305.46,410,304.71,410,303Z"/><g class="cls-3"><path class="cls-2" d="M428.36,299.73a7.54,7.54,0,0,1,7.9-7.63,7.4,7.4,0,0,1,5.67,2.32l-1.39,1.35a5.51,5.51,0,0,0-4.2-1.77,5.73,5.73,0,1,0,0,11.46,5.57,5.57,0,0,0,4.2-1.79l1.39,1.34a7.43,7.43,0,0,1-5.69,2.34A7.53,7.53,0,0,1,428.36,299.73Z"/><path class="cls-2" d="M451.54,299.73a7.93,7.93,0,1,1,7.95,7.62A7.58,7.58,0,0,1,451.54,299.73Zm13.72,0a5.8,5.8,0,1,0-5.77,5.73A5.6,5.6,0,0,0,465.26,299.73Z"/><path class="cls-2" d="M491.58,292.27v14.91h-1.75l-8.94-11.12v11.12h-2.13V292.27h1.74l8.95,11.12V292.27Z"/><path class="cls-2" d="M502.8,305.48l.79-1.66a7.65,7.65,0,0,0,4.92,1.72c2.57,0,3.68-1,3.68-2.3,0-3.64-9-1.34-9-6.88,0-2.3,1.79-4.26,5.71-4.26a8.81,8.81,0,0,1,4.79,1.32l-.7,1.71a7.72,7.72,0,0,0-4.09-1.22c-2.54,0-3.62,1.07-3.62,2.37,0,3.64,9,1.36,9,6.83,0,2.28-1.83,4.24-5.77,4.24A8.83,8.83,0,0,1,502.8,305.48Z"/><path class="cls-2" d="M525.37,300.75v-8.48h2.12v8.4c0,3.3,1.52,4.79,4.2,4.79s4.22-1.49,4.22-4.79v-8.4H538v8.48c0,4.32-2.36,6.6-6.3,6.6S525.37,305.07,525.37,300.75Z"/><path class="cls-2" d="M550.45,292.27h2.13v13.06h8.07v1.85h-10.2Z"/><path class="cls-2" d="M572.78,294.13h-5.11v-1.86H580v1.86h-5.11v13.05h-2.11Z"/></g></g></g></svg>