<svg xmlns="http://www.w3.org/2000/svg" viewBox="0 0 800 600"><defs><style>.cls-1{fill:#f7f7f7;}.cls-2,.cls-4,.cls-5{opacity:0.5;}.cls-3,.cls-4{fill:#59575b;}.cls-5,.cls-6{fill:none;stroke:#2f80ed;stroke-miterlimit:10;stroke-width:0.5px;}</style></defs><title>vis-2</title><g id="Calque_2" data-name="Calque 2"><g id="Calque_2-2" data-name="Calque 2"><rect class="cls-1" width="800" height="600"/><g class="cls-2"><polygon class="cls-3" points="391.22 115.33 390.36 114.89 386.93 113.16 386.05 112.72 385.62 113.6 352.74 180.08 319.86 113.6 319.42 112.72 318.55 113.16 315.12 114.89 314.26 115.33 314.68 116.19 349.51 186.62 349.51 186.62 352.66 193 352.81 193 355.97 186.62 355.97 186.62 390.79 116.19 391.22 115.33"/><path class="cls-3" d="M484.77,149.52H444.7v5.82h35.14a36,36,0,0,1-4.4,14.49,35.52,35.52,0,0,1-30.75,17.72c-.36,0-.71,0-1.07,0l-2.71-.19v0a35.55,35.55,0,1,1,31.53-57.56l4.26-3.4a41,41,0,1,0-32,66.61q1.74,0,3.45-.15a40.32,40.32,0,0,0,37.6-40.42v-2.91Z"/></g><polygon class="cls-4" points="438.54 263.33 437.68 262.89 434.24 261.16 433.36 260.72 432.93 261.6 400 328.08 367.07 261.6 366.64 260.72 365.76 261.16 362.32 262.89 361.46 263.33 361.89 264.19 396.76 334.62 396.76 334.62 399.93 341 400.07 341 403.24 334.62 403.24 334.62 438.11 264.19 438.54 263.33"/><path class="cls-4" d="M440.11,297.52H400v5.82h35.19a36,36,0,0,1-4.4,14.49A35.59,35.59,0,0,1,400,335.55c-.36,0-.71,0-1.07,0l-2.71-.19v0a35.55,35.55,0,1,1,31.58-57.56l4.26-3.4A41,41,0,1,0,400,341c1.17,0,2.32-.05,3.46-.15a40.35,40.35,0,0,0,37.66-40.42v-2.91Z"/><path class="cls-3" d="M399.28,340l.26.54h1.77A39.91,39.91,0,0,0,441,300.39v-2.88H400.35v5.76h34.8a34.14,34.14,0,0,1-32.09,31.42l-36-72.82-.44-.87-.87.44-3.39,1.72-.85.43.42.86Z"/><path class="cls-3" d="M399.28,486l.26.54h1.77A39.91,39.91,0,0,0,441,446.39v-2.88H400.35v5.76h34.8a34.14,34.14,0,0,1-32.09,31.42l-36-72.82-.44-.87-.87.44-3.39,1.72-.85.43.42.86Z"/><circle class="cls-5" cx="400" cy="300" r="41"/><circle class="cls-5" cx="400" cy="300" r="35.5"/><g class="cls-2"><line class="cls-6" x1="800" y1="297.52" y2="297.52"/><line class="cls-6" x1="800" y1="303.5" y2="303.5"/></g></g></g></svg>