<svg xmlns="http://www.w3.org/2000/svg" xmlns:xlink="http://www.w3.org/1999/xlink" version="1.1" x="0px" y="0px" viewBox="0 0 100 125" style="enable-background:new 0 0 100 100;" xml:space="preserve"><path d="M93.5,47c-1.8-26.4-26-45.4-52-40.9C19.1,9.9,3,30.3,4.5,53C5.3,65.3,11,76,19.5,83.4c-2.2,3.8-3.9,6-7.4,9.1  c-1.6,1.3-0.6,3.9,1.4,3.9c5.9,0.1,14-1.2,19.5-4.7c7.4,2.8,15.5,3.8,23.8,2.2C79.1,89.9,95,69.5,93.5,47z M34.6,55.5  c-2.5,0-4.5-2-4.5-4.5c0-2.5,2-4.5,4.5-4.5c2.5,0,4.5,2,4.5,4.5C39.1,53.5,37.1,55.5,34.6,55.5z M49,55.5c-2.5,0-4.5-2-4.5-4.5  c0-2.5,2-4.5,4.5-4.5c2.5,0,4.5,2,4.5,4.5C53.5,53.5,51.5,55.5,49,55.5z M63.4,55.5c-2.5,0-4.5-2-4.5-4.5c0-2.5,2-4.5,4.5-4.5  s4.5,2,4.5,4.5C67.8,53.5,65.8,55.5,63.4,55.5z"/></svg>