<svg width="16" height="13" viewBox="0 0 16 13" fill="none" xmlns="http://www.w3.org/2000/svg">
<path opacity="0.5" fill-rule="evenodd" clip-rule="evenodd" d="M10.0384 3.30508H5.98356H0.876713V6.65424H15.1233V3.30508H10.0384ZM15.1233 12.1186V7.5356H0.876713V12.1186H15.1233ZM16 2.8644V7.09491V12.5593C16 12.8017 15.8027 13 15.5616 13H0.438356C0.19726 13 0 12.8017 0 12.5593V7.09491V2.8644C0 2.62202 0.19726 2.42372 0.438356 2.42372H5.5452V1.18983C5.5452 0.528809 6.07123 0 6.72876 0H9.29315C9.95068 0 10.4767 0.528809 10.4767 1.18983V2.42372H15.5616C15.8027 2.42372 16 2.62202 16 2.8644ZM9.59999 1.18983V2.42372H6.42192V1.18983C6.42192 1.01357 6.55342 0.881363 6.72876 0.881363H9.29315C9.46849 0.881363 9.59999 1.01357 9.59999 1.18983ZM8.76712 4.95763C8.76712 5.38354 8.42367 5.72882 8 5.72882C7.57633 5.72882 7.23288 5.38354 7.23288 4.95763C7.23288 4.53172 7.57633 4.18645 8 4.18645C8.42367 4.18645 8.76712 4.53172 8.76712 4.95763Z" fill="#2F80ED"/>
</svg>
