<svg width="800" height="600" viewBox="0 0 800 600" fill="none" xmlns="http://www.w3.org/2000/svg">
<path d="M800 0H0V600H800V0Z" fill="#F7F7F7"/>
<path d="M433.5 266.26L400 247.52L366.5 266.19L382.21 274.99L366.5 283.74L400 302.48L433.52 283.81L417.79 275L433.5 266.26ZM400 250.2L428.69 266.26L399.96 282.26L371.29 266.2L400 250.2ZM428.69 283.8L400 299.8L371.31 283.74L384.62 276.33L400 284.93L415.41 276.35L428.69 283.8Z" fill="#F76C4B"/>
<path fill-rule="evenodd" clip-rule="evenodd" d="M391.1 365.97C391.646 366.192 392.231 366.301 392.82 366.29C393.405 366.306 393.988 366.201 394.53 365.98C394.982 365.798 395.371 365.489 395.65 365.09C395.922 364.701 396.062 364.235 396.05 363.76C396.069 363.297 395.92 362.842 395.63 362.48C395.391 362.163 395.079 361.909 394.72 361.74C394.37 361.58 393.91 361.38 393.32 361.17C392.913 361.04 392.512 360.89 392.12 360.72C391.909 360.629 391.719 360.496 391.56 360.33C391.431 360.188 391.363 360.002 391.37 359.81C391.366 359.677 391.393 359.545 391.451 359.425C391.508 359.305 391.594 359.2 391.7 359.12C391.976 358.941 392.301 358.853 392.63 358.87C393.057 358.846 393.478 358.981 393.81 359.25C393.822 359.259 393.833 359.267 393.844 359.276C393.856 359.287 393.869 359.297 393.881 359.308C393.907 359.331 393.933 359.356 393.957 359.382C393.994 359.423 394.029 359.466 394.06 359.512L394.074 359.534L394.089 359.557C394.105 359.583 394.12 359.61 394.134 359.638C394.21 359.791 394.25 359.959 394.25 360.13V360.26C394.25 360.304 394.271 360.336 394.314 360.356C394.322 360.36 394.331 360.363 394.341 360.366L394.357 360.37C394.37 360.373 394.384 360.375 394.399 360.377C394.418 360.379 394.438 360.38 394.46 360.38H395.79C395.818 360.383 395.847 360.38 395.874 360.371C395.901 360.361 395.925 360.346 395.946 360.326C395.966 360.305 395.981 360.281 395.99 360.254C396 360.227 396.003 360.198 396 360.17V360.05C396.013 359.549 395.862 359.057 395.57 358.65C395.275 358.231 394.87 357.902 394.4 357.7C393.859 357.472 393.277 357.36 392.69 357.37C392.142 357.361 391.598 357.463 391.09 357.67C390.655 357.847 390.28 358.145 390.01 358.53C389.748 358.912 389.611 359.367 389.62 359.83C389.608 360.292 389.749 360.745 390.02 361.12C390.291 361.459 390.632 361.735 391.02 361.93C391.481 362.161 391.959 362.355 392.45 362.51L392.484 362.523C392.967 362.706 393.325 362.842 393.54 362.95C393.743 363.032 393.927 363.154 394.08 363.31C394.148 363.374 394.203 363.451 394.239 363.537C394.275 363.624 394.292 363.717 394.29 363.81C394.29 363.821 394.29 363.833 394.29 363.844C394.289 363.858 394.288 363.871 394.287 363.885C394.284 363.926 394.278 363.967 394.269 364.007C394.255 364.072 394.233 364.136 394.204 364.197C394.147 364.318 394.064 364.425 393.96 364.51C393.67 364.717 393.315 364.812 392.96 364.78C392.532 364.803 392.108 364.687 391.75 364.45C391.712 364.423 391.676 364.394 391.642 364.363C391.625 364.347 391.608 364.33 391.591 364.313C391.525 364.243 391.468 364.165 391.423 364.079C391.345 363.931 391.303 363.767 391.3 363.6V363.42C391.3 363.32 391.23 363.26 391.08 363.26H389.76C389.732 363.257 389.703 363.26 389.676 363.269C389.649 363.279 389.625 363.294 389.604 363.314C389.584 363.335 389.569 363.359 389.559 363.386L389.555 363.399L389.552 363.412L389.551 363.419L389.55 363.429L389.549 363.435L389.549 363.439L389.549 363.451L389.549 363.458L389.55 363.465L389.55 363.47V363.69C389.538 364.177 389.678 364.656 389.95 365.06C390.24 365.465 390.639 365.781 391.1 365.97ZM338.51 366.19H337.93C337.879 366.194 337.829 366.181 337.786 366.154C337.742 366.127 337.709 366.087 337.69 366.04L335.86 362.2C335.852 362.186 335.84 362.174 335.826 362.165C335.812 362.156 335.797 362.151 335.78 362.15H333.68C333.672 362.148 333.663 362.148 333.655 362.151C333.65 362.152 333.646 362.154 333.641 362.157C333.639 362.159 333.636 362.161 333.633 362.163C333.63 362.166 333.628 362.17 333.626 362.173C333.624 362.177 333.622 362.181 333.621 362.185C333.618 362.193 333.618 362.202 333.62 362.21V366C333.62 366.022 333.616 366.044 333.607 366.064C333.598 366.084 333.586 366.102 333.57 366.117C333.554 366.132 333.535 366.143 333.514 366.151C333.494 366.158 333.472 366.161 333.45 366.16H332.89C332.882 366.161 332.874 366.16 332.865 366.16C332.852 366.158 332.839 366.155 332.826 366.151C332.805 366.143 332.786 366.132 332.77 366.117C332.755 366.102 332.742 366.084 332.733 366.064C332.728 366.052 332.725 366.04 332.723 366.028C332.721 366.019 332.72 366.01 332.72 366V357.62C332.719 357.606 332.72 357.591 332.723 357.577C332.724 357.572 332.725 357.567 332.727 357.563L332.73 357.553C332.735 357.541 332.741 357.53 332.748 357.519C332.753 357.511 332.76 357.503 332.767 357.497C332.783 357.48 332.802 357.468 332.823 357.46C332.832 357.457 332.841 357.454 332.85 357.453C332.863 357.45 332.876 357.449 332.89 357.45H336.11C336.431 357.431 336.751 357.48 337.052 357.594C337.352 357.708 337.625 357.884 337.852 358.111C338.08 358.337 338.257 358.609 338.372 358.909C338.487 359.209 338.537 359.529 338.52 359.85C338.545 360.376 338.382 360.894 338.059 361.31C337.736 361.726 337.276 362.013 336.76 362.12V362.19L338.64 366C338.69 366.12 338.64 366.19 338.51 366.19ZM336.05 358.19H333.72V358.23C333.709 358.226 333.697 358.226 333.687 358.229C333.676 358.233 333.666 358.24 333.66 358.25V361.37C333.66 361.386 333.666 361.401 333.678 361.412C333.689 361.424 333.704 361.43 333.72 361.43H336.05C336.48 361.43 336.892 361.259 337.196 360.955C337.499 360.652 337.67 360.24 337.67 359.81C337.67 359.38 337.499 358.968 337.196 358.664C336.892 358.361 336.48 358.19 336.05 358.19ZM326.24 366.29C326.625 366.327 327.014 366.282 327.381 366.157C327.747 366.033 328.083 365.832 328.367 365.569C328.65 365.305 328.875 364.985 329.025 364.628C329.176 364.271 329.249 363.887 329.24 363.5V357.63C329.24 357.626 329.24 357.621 329.239 357.617L329.239 357.612L329.238 357.606C329.236 357.592 329.232 357.579 329.227 357.566C329.218 357.546 329.206 357.528 329.19 357.513C329.185 357.509 329.18 357.504 329.174 357.5C329.162 357.491 329.149 357.484 329.134 357.479C329.114 357.472 329.092 357.469 329.07 357.47H328.51C328.488 357.469 328.466 357.472 328.446 357.479C328.425 357.487 328.406 357.498 328.39 357.513C328.374 357.528 328.362 357.546 328.353 357.566C328.344 357.586 328.34 357.608 328.34 357.63V363.52C328.34 364.077 328.119 364.611 327.725 365.005C327.331 365.399 326.797 365.62 326.24 365.62C325.683 365.62 325.149 365.399 324.755 365.005C324.361 364.611 324.14 364.077 324.14 363.52V357.63C324.141 357.62 324.14 357.61 324.139 357.6C324.138 357.588 324.135 357.578 324.131 357.567C324.123 357.547 324.112 357.529 324.096 357.514C324.081 357.498 324.063 357.487 324.043 357.479C324.034 357.476 324.025 357.473 324.016 357.472C324.012 357.471 324.008 357.471 324.003 357.47L323.992 357.47L323.98 357.47H323.41C323.389 357.468 323.367 357.472 323.347 357.479C323.342 357.481 323.336 357.484 323.331 357.486C323.327 357.488 323.324 357.49 323.32 357.492L323.314 357.496L323.307 357.502C323.302 357.505 323.298 357.509 323.294 357.514C323.278 357.529 323.267 357.547 323.259 357.567C323.252 357.587 323.249 357.609 323.25 357.63V363.5C323.241 363.886 323.314 364.27 323.464 364.625C323.614 364.981 323.838 365.301 324.12 365.565C324.402 365.828 324.737 366.029 325.102 366.154C325.468 366.279 325.855 366.325 326.24 366.29ZM318.65 361.64C319.033 361.5 319.361 361.24 319.585 360.9C319.81 360.56 319.921 360.157 319.9 359.75C319.9 358.28 318.9 357.47 317.29 357.47H314.37L314.36 357.47C314.351 357.47 314.343 357.47 314.335 357.472C314.325 357.473 314.315 357.476 314.306 357.479C314.285 357.487 314.266 357.498 314.25 357.513C314.234 357.528 314.222 357.546 314.213 357.566C314.204 357.586 314.2 357.608 314.2 357.63V366C314.2 366.022 314.204 366.044 314.213 366.064C314.222 366.084 314.234 366.102 314.25 366.117C314.266 366.132 314.285 366.143 314.306 366.151C314.326 366.158 314.348 366.161 314.37 366.16H317.37C317.703 366.202 318.042 366.171 318.362 366.07C318.682 365.97 318.977 365.801 319.227 365.576C319.476 365.352 319.675 365.076 319.808 364.767C319.941 364.459 320.007 364.126 320 363.79C320.029 363.342 319.914 362.896 319.671 362.518C319.428 362.14 319.07 361.85 318.65 361.69C318.59 361.69 318.59 361.67 318.65 361.64ZM315.16 358.24H317.29C317.51 358.216 317.733 358.239 317.944 358.308C318.155 358.376 318.349 358.489 318.512 358.639C318.676 358.788 318.806 358.971 318.893 359.175C318.981 359.378 319.024 359.598 319.02 359.82C319.019 360.037 318.972 360.252 318.881 360.449C318.791 360.647 318.66 360.823 318.496 360.966C318.332 361.109 318.14 361.215 317.932 361.278C317.724 361.341 317.505 361.358 317.29 361.33H315.16C315.152 361.332 315.143 361.332 315.135 361.329L315.133 361.329L315.127 361.326C315.122 361.324 315.117 361.321 315.113 361.317C315.107 361.311 315.103 361.303 315.101 361.295C315.1 361.292 315.099 361.289 315.099 361.286C315.098 361.281 315.099 361.275 315.1 361.27V358.27L315.103 358.264L315.104 358.262C315.105 358.26 315.106 358.259 315.107 358.257C315.112 358.252 315.117 358.247 315.124 358.243C315.135 358.238 315.148 358.237 315.16 358.24ZM317.37 365.41H315.16C315.16 365.41 315.156 365.41 315.15 365.409C315.146 365.408 315.141 365.407 315.136 365.405C315.13 365.402 315.123 365.397 315.117 365.391C315.107 365.38 315.1 365.364 315.1 365.34V362.14L315.099 362.134L315.099 362.132V362.125C315.099 362.122 315.1 362.118 315.101 362.115C315.103 362.107 315.107 362.099 315.113 362.093C315.119 362.087 315.127 362.083 315.135 362.081C315.143 362.078 315.152 362.078 315.16 362.08H317.32C317.551 362.055 317.784 362.081 318.004 362.154C318.225 362.228 318.426 362.348 318.596 362.506C318.766 362.665 318.9 362.858 318.988 363.072C319.077 363.287 319.118 363.518 319.11 363.75C319.121 363.978 319.083 364.205 318.998 364.417C318.948 364.542 318.883 364.659 318.804 364.767C318.749 364.842 318.687 364.913 318.619 364.978C318.551 365.043 318.478 365.101 318.4 365.153C318.289 365.226 318.169 365.286 318.042 365.33C317.826 365.404 317.597 365.432 317.37 365.41ZM347.42 358.08V357.63C347.422 357.609 347.418 357.587 347.411 357.567C347.408 357.559 347.404 357.551 347.4 357.544C347.393 357.533 347.385 357.523 347.376 357.514C347.369 357.506 347.36 357.499 347.351 357.493C347.342 357.488 347.333 357.483 347.323 357.479C347.318 357.477 347.312 357.475 347.307 357.474L347.297 357.472C347.285 357.47 347.272 357.469 347.26 357.47H341.89C341.868 357.469 341.846 357.472 341.826 357.479C341.821 357.481 341.817 357.483 341.813 357.485L341.808 357.487L341.797 357.493C341.787 357.499 341.778 357.506 341.77 357.513L341.766 357.518L341.76 357.523L341.756 357.528L341.752 357.534C341.744 357.544 341.738 357.555 341.733 357.566C341.724 357.586 341.72 357.608 341.72 357.63V366C341.72 366.013 341.721 366.026 341.725 366.038C341.726 366.044 341.728 366.05 341.73 366.055L341.733 366.064C341.742 366.084 341.754 366.102 341.77 366.117C341.786 366.132 341.805 366.143 341.826 366.151C341.846 366.158 341.868 366.161 341.89 366.16H347.26C347.281 366.161 347.303 366.158 347.323 366.151C347.343 366.143 347.361 366.132 347.376 366.116C347.38 366.113 347.383 366.109 347.387 366.105C347.392 366.099 347.396 366.092 347.4 366.085C347.404 366.078 347.408 366.071 347.411 366.063C347.418 366.043 347.422 366.021 347.42 366V365.55C347.422 365.529 347.418 365.507 347.411 365.487C347.407 365.477 347.402 365.467 347.396 365.458C347.391 365.449 347.384 365.441 347.376 365.434C347.361 365.418 347.343 365.407 347.323 365.399C347.303 365.392 347.281 365.389 347.26 365.39H342.68L342.675 365.39L342.669 365.389C342.666 365.388 342.662 365.387 342.658 365.386C342.651 365.383 342.644 365.378 342.638 365.372C342.626 365.361 342.62 365.346 342.62 365.33V362.22C342.62 362.204 342.626 362.189 342.638 362.178C342.643 362.172 342.649 362.168 342.656 362.165C342.664 362.162 342.672 362.16 342.68 362.16H345.88C345.916 362.153 345.948 362.132 345.971 362.103C345.982 362.087 345.991 362.07 345.995 362.052C346 362.035 346.001 362.017 346 362V361.55L346 361.543L346 361.535C346 361.531 346 361.527 345.999 361.523C345.998 361.51 345.995 361.499 345.991 361.487C345.983 361.467 345.972 361.449 345.956 361.434C345.95 361.427 345.942 361.421 345.935 361.415C345.925 361.409 345.914 361.403 345.903 361.399C345.89 361.394 345.876 361.391 345.862 361.39L345.851 361.39L345.84 361.39H342.64C342.624 361.39 342.609 361.384 342.598 361.372C342.595 361.37 342.593 361.367 342.591 361.364L342.587 361.358L342.585 361.354C342.583 361.35 342.582 361.347 342.581 361.343L342.58 361.337L342.58 361.33V358.3C342.578 358.292 342.578 358.283 342.581 358.275C342.582 358.271 342.583 358.268 342.585 358.265C342.587 358.261 342.59 358.257 342.593 358.253C342.599 358.247 342.607 358.243 342.615 358.241C342.617 358.24 342.62 358.239 342.623 358.239L342.627 358.239C342.631 358.239 342.636 358.239 342.64 358.24H347.22C347.233 358.245 347.246 358.247 347.259 358.249C347.271 358.249 347.284 358.249 347.296 358.247C347.321 358.243 347.345 358.232 347.365 358.216C347.385 358.2 347.401 358.179 347.41 358.155C347.416 358.141 347.42 358.125 347.421 358.109L347.421 358.098C347.421 358.092 347.421 358.086 347.42 358.08ZM356.45 366.19H355.84C355.799 366.193 355.759 366.18 355.727 366.154C355.695 366.128 355.675 366.091 355.67 366.05L355.16 364.53H355.1H351.35H351.29L350.8 366.05C350.793 366.091 350.77 366.129 350.737 366.155C350.704 366.181 350.662 366.193 350.62 366.19H350.02C350.009 366.192 349.999 366.193 349.988 366.193C349.974 366.192 349.96 366.189 349.947 366.184C349.941 366.182 349.935 366.179 349.929 366.175L349.921 366.171C349.915 366.166 349.91 366.162 349.904 366.157C349.899 366.152 349.894 366.146 349.889 366.14C349.882 366.13 349.876 366.12 349.872 366.108C349.868 366.097 349.865 366.084 349.864 366.071C349.863 366.053 349.865 366.036 349.872 366.019C349.874 366.012 349.877 366.006 349.88 366L352.65 357.6C352.657 357.559 352.68 357.523 352.714 357.499C352.747 357.474 352.789 357.464 352.83 357.47H353.63C353.671 357.464 353.713 357.474 353.746 357.499C353.78 357.523 353.803 357.559 353.81 357.6L356.59 366C356.62 366.12 356.56 366.19 356.45 366.19ZM353.19 358.59L351.57 363.69C351.563 363.708 351.574 363.723 351.592 363.733L351.6 363.738L351.607 363.742C351.617 363.746 351.627 363.749 351.636 363.752C351.645 363.755 351.653 363.757 351.66 363.758L351.67 363.76H354.9V363.69L353.27 358.59C353.266 358.577 353.26 358.567 353.253 358.56C353.247 358.554 353.241 358.55 353.234 358.547C353.212 358.539 353.19 358.553 353.19 358.59ZM362.32 366.29C362.706 366.328 363.095 366.284 363.462 366.161C363.83 366.037 364.166 365.836 364.45 365.573C364.734 365.309 364.958 364.987 365.108 364.63C365.258 364.273 365.33 363.887 365.32 363.5V357.63L365.32 357.619C365.32 357.614 365.32 357.609 365.319 357.603C365.318 357.591 365.315 357.579 365.311 357.567C365.303 357.547 365.292 357.529 365.276 357.514C365.261 357.498 365.243 357.487 365.223 357.479C365.203 357.472 365.181 357.468 365.16 357.47H364.59C364.569 357.468 364.547 357.472 364.527 357.479C364.518 357.483 364.509 357.487 364.501 357.492C364.496 357.495 364.491 357.498 364.487 357.502C364.482 357.506 364.478 357.509 364.474 357.514C364.458 357.529 364.447 357.547 364.439 357.567C364.432 357.587 364.429 357.609 364.43 357.63V363.52C364.43 364.077 364.209 364.611 363.815 365.005C363.421 365.399 362.887 365.62 362.33 365.62C361.773 365.62 361.239 365.399 360.845 365.005C360.451 364.611 360.23 364.077 360.23 363.52V357.63C360.23 357.608 360.226 357.586 360.217 357.566C360.214 357.56 360.212 357.555 360.208 357.549L360.205 357.543L360.201 357.537C360.195 357.529 360.188 357.521 360.18 357.513C360.164 357.498 360.145 357.487 360.124 357.479C360.104 357.472 360.082 357.469 360.06 357.47H359.5C359.478 357.469 359.456 357.472 359.436 357.479C359.415 357.487 359.396 357.498 359.38 357.513L359.372 357.521L359.366 357.528L359.359 357.537C359.353 357.546 359.348 357.556 359.343 357.566C359.338 357.579 359.334 357.593 359.332 357.607C359.331 357.615 359.33 357.622 359.33 357.63V363.5C359.321 363.886 359.394 364.27 359.544 364.625C359.694 364.981 359.918 365.301 360.2 365.565C360.482 365.828 360.817 366.029 361.182 366.154C361.548 366.279 361.936 366.325 362.32 366.29ZM372.326 366.181C372.343 366.186 372.36 366.19 372.378 366.191C372.388 366.191 372.399 366.191 372.41 366.19H375.5C376.063 366.2 376.622 366.091 377.14 365.87C377.591 365.667 377.975 365.341 378.25 364.93C378.513 364.518 378.649 364.038 378.64 363.55V360.11C378.651 359.621 378.515 359.141 378.25 358.73C377.978 358.319 377.592 357.996 377.14 357.8C376.624 357.571 376.064 357.458 375.5 357.47H372.41C372.382 357.467 372.353 357.47 372.326 357.479C372.299 357.489 372.275 357.504 372.255 357.524C372.234 357.545 372.219 357.569 372.209 357.596C372.2 357.623 372.197 357.652 372.2 357.68V365.98L372.199 365.987L372.199 365.996C372.199 366.008 372.199 366.02 372.201 366.032L372.204 366.043L372.206 366.054L372.209 366.064C372.219 366.091 372.234 366.115 372.255 366.136C372.265 366.146 372.277 366.155 372.289 366.163C372.301 366.17 372.313 366.176 372.326 366.181ZM373.998 364.675C373.994 364.673 373.99 364.671 373.986 364.669C373.981 364.666 373.978 364.661 373.975 364.656C373.97 364.645 373.97 364.63 373.97 364.61V359.09C373.968 359.079 373.969 359.068 373.973 359.057C373.976 359.047 373.982 359.037 373.99 359.03C373.997 359.022 374.007 359.016 374.017 359.013C374.028 359.009 374.039 359.008 374.05 359.01H375.55C375.727 359.001 375.904 359.032 376.068 359.099C376.233 359.167 376.38 359.269 376.5 359.4C376.749 359.673 376.881 360.031 376.87 360.4V363.3C376.867 363.668 376.732 364.023 376.49 364.3C376.37 364.425 376.225 364.523 376.065 364.588C375.905 364.654 375.733 364.685 375.56 364.68H374.05C374.04 364.68 374.031 364.68 374.024 364.679C374.013 364.678 374.005 364.677 373.998 364.675ZM387.35 358.76C387.35 358.9 387.28 358.97 387.13 358.97H383.08C383.061 358.97 383.046 358.97 383.035 358.975C383.017 358.982 383.01 359.001 383.01 359.05V361C383.01 361.03 383.01 361.05 383.026 361.06C383.036 361.067 383.052 361.07 383.08 361.07H385.71C385.726 361.067 385.742 361.067 385.758 361.068C385.764 361.069 385.77 361.069 385.775 361.07C385.782 361.072 385.79 361.074 385.797 361.076C385.825 361.084 385.851 361.1 385.873 361.12C385.894 361.14 385.91 361.165 385.92 361.193C385.93 361.221 385.933 361.251 385.93 361.28V362.37C385.933 362.399 385.93 362.429 385.92 362.457C385.91 362.485 385.894 362.51 385.873 362.53C385.858 362.544 385.841 362.555 385.823 362.564L385.818 362.567L385.807 362.571L385.797 362.574C385.769 362.583 385.739 362.585 385.71 362.58H383.08C383.03 362.58 383.01 362.58 383.01 362.65V364.65C383.01 364.662 383.01 364.672 383.011 364.68C383.012 364.686 383.013 364.692 383.015 364.696C383.017 364.702 383.021 364.707 383.026 364.71C383.036 364.717 383.053 364.72 383.08 364.72H387.13C387.19 364.72 387.237 364.731 387.271 364.753C387.325 364.787 387.35 364.846 387.35 364.93V366C387.35 366.14 387.28 366.21 387.13 366.21H381.45L381.437 366.212C381.43 366.212 381.423 366.213 381.416 366.213C381.398 366.212 381.38 366.21 381.363 366.204L381.359 366.203C381.352 366.201 381.345 366.198 381.338 366.195C381.33 366.191 381.323 366.187 381.316 366.182C381.306 366.176 381.296 366.168 381.287 366.16C381.266 366.14 381.25 366.115 381.24 366.087C381.235 366.073 381.231 366.058 381.23 366.043C381.228 366.029 381.228 366.014 381.23 366V357.7C381.228 357.686 381.228 357.672 381.23 357.658C381.23 357.652 381.231 357.646 381.232 357.64C381.234 357.631 381.237 357.622 381.24 357.613C381.25 357.585 381.266 357.56 381.287 357.54C381.309 357.52 381.335 357.504 381.363 357.496C381.391 357.487 381.421 357.485 381.45 357.49H387.13C387.28 357.49 387.35 357.56 387.35 357.7V358.76ZM401.52 366.29C400.931 366.301 400.346 366.192 399.8 365.97C399.339 365.781 398.94 365.465 398.65 365.06C398.382 364.654 398.243 364.176 398.25 363.69V363.47C398.247 363.442 398.25 363.413 398.259 363.386C398.262 363.378 398.265 363.371 398.269 363.364C398.271 363.359 398.274 363.354 398.277 363.349C398.285 363.336 398.294 363.325 398.304 363.314C398.31 363.309 398.316 363.303 398.322 363.299L398.333 363.291C398.346 363.282 398.361 363.275 398.376 363.269C398.381 363.268 398.387 363.266 398.392 363.265L398.404 363.262L398.415 363.26C398.424 363.259 398.433 363.259 398.442 363.259C398.448 363.259 398.454 363.259 398.46 363.26H399.79C399.93 363.26 400 363.32 400 363.42V363.6C400.003 363.767 400.045 363.931 400.123 364.079C400.171 364.17 400.232 364.253 400.303 364.325C400.348 364.371 400.397 364.413 400.45 364.45C400.809 364.683 401.232 364.798 401.66 364.78C402.015 364.812 402.37 364.717 402.66 364.51C402.764 364.425 402.847 364.318 402.904 364.197C402.932 364.139 402.953 364.078 402.967 364.016C402.983 363.948 402.99 363.879 402.99 363.81C402.992 363.717 402.975 363.626 402.941 363.54C402.906 363.454 402.855 363.376 402.79 363.31C402.633 363.159 402.45 363.037 402.25 362.95C402.026 362.843 401.67 362.708 401.191 362.526L401.15 362.51C400.659 362.355 400.181 362.161 399.72 361.93C399.329 361.739 398.987 361.462 398.72 361.12C398.441 360.749 398.297 360.294 398.31 359.83C398.301 359.367 398.438 358.912 398.7 358.53C398.972 358.143 399.35 357.844 399.79 357.67C400.294 357.463 400.835 357.361 401.38 357.37C401.967 357.36 402.549 357.472 403.09 357.7C403.564 357.897 403.97 358.227 404.26 358.65C404.552 359.057 404.703 359.549 404.69 360.05V360.17C404.693 360.198 404.69 360.227 404.68 360.254C404.671 360.281 404.656 360.305 404.635 360.326C404.615 360.346 404.591 360.361 404.564 360.371C404.537 360.38 404.508 360.383 404.48 360.38H403.16C403.01 360.38 402.94 360.38 402.94 360.26V360.13C402.942 359.959 402.902 359.79 402.826 359.637C402.75 359.484 402.638 359.351 402.5 359.25C402.167 358.981 401.747 358.846 401.32 358.87C400.991 358.853 400.666 358.941 400.39 359.12C400.336 359.161 400.288 359.207 400.246 359.259C400.204 359.31 400.169 359.365 400.141 359.425C400.112 359.484 400.091 359.546 400.078 359.61C400.071 359.64 400.067 359.67 400.064 359.7C400.061 359.722 400.06 359.743 400.06 359.765C400.059 359.78 400.059 359.795 400.06 359.81C400.057 360.001 400.124 360.186 400.25 360.33C400.414 360.494 400.608 360.626 400.82 360.72C401.08 360.84 401.48 360.99 402.01 361.17C402.54 361.35 403.06 361.58 403.41 361.74C403.77 361.911 404.085 362.165 404.33 362.48C404.61 362.847 404.755 363.299 404.74 363.76C404.752 364.235 404.611 364.701 404.34 365.09C404.063 365.491 403.674 365.801 403.22 365.98C402.681 366.2 402.102 366.306 401.52 366.29ZM407.24 365.98C407.24 366.12 407.31 366.19 407.46 366.19L408.8 366.21L408.806 366.211L408.817 366.212L408.827 366.213L408.838 366.212C408.847 366.212 408.855 366.211 408.863 366.21C408.871 366.209 408.879 366.207 408.887 366.204C408.915 366.196 408.941 366.18 408.963 366.16C408.984 366.14 409 366.115 409.01 366.087C409.02 366.059 409.024 366.029 409.02 366V357.68C409.024 357.651 409.02 357.621 409.01 357.593C409.007 357.584 409.003 357.575 408.998 357.567C408.994 357.559 408.989 357.551 408.983 357.543C408.98 357.539 408.977 357.535 408.973 357.531C408.97 357.527 408.966 357.523 408.963 357.52C408.941 357.5 408.915 357.484 408.887 357.476C408.859 357.467 408.829 357.465 408.8 357.47H407.46C407.31 357.47 407.24 357.54 407.24 357.68V365.98ZM412 366.19C411.971 366.195 411.941 366.193 411.913 366.184C411.885 366.176 411.859 366.16 411.838 366.14C411.827 366.13 411.818 366.119 411.81 366.107C411.802 366.094 411.795 366.081 411.79 366.067C411.784 366.051 411.781 366.034 411.779 366.017C411.779 366.011 411.779 366.005 411.779 365.999L411.779 365.99L411.78 365.98V357.68C411.776 357.651 411.78 357.621 411.79 357.593C411.8 357.565 411.816 357.54 411.838 357.52C411.859 357.5 411.885 357.484 411.913 357.476C411.941 357.467 411.971 357.465 412 357.47H413.29C413.341 357.467 413.392 357.477 413.438 357.5C413.483 357.523 413.522 357.557 413.55 357.6L416.69 362.79H416.74C416.79 362.79 416.74 362.79 416.74 362.72V357.64C416.738 357.625 416.739 357.609 416.741 357.593C416.742 357.581 416.745 357.568 416.75 357.556C416.759 357.529 416.774 357.505 416.795 357.484C416.815 357.464 416.839 357.449 416.866 357.439C416.893 357.43 416.922 357.427 416.95 357.43H418.27C418.42 357.43 418.49 357.5 418.49 357.64V366C418.49 366.14 418.42 366.21 418.27 366.21H416.99C416.96 366.209 416.93 366.203 416.901 366.194C416.882 366.187 416.863 366.178 416.846 366.167C416.802 366.141 416.766 366.104 416.74 366.06L413.58 360.83C413.58 360.83 413.58 360.81 413.564 360.808C413.562 360.808 413.56 360.808 413.558 360.808C413.555 360.809 413.552 360.81 413.549 360.811C413.541 360.814 413.532 360.82 413.52 360.83C413.515 360.839 413.512 360.849 413.512 360.86C413.512 360.871 413.515 360.881 413.52 360.89V366.04C413.524 366.069 413.52 366.099 413.51 366.127C413.5 366.155 413.484 366.18 413.463 366.2C413.441 366.22 413.415 366.236 413.387 366.244C413.359 366.253 413.329 366.255 413.3 366.25L412 366.19ZM425.246 366.181C425.273 366.19 425.302 366.193 425.33 366.19H428.41C428.976 366.201 429.539 366.092 430.06 365.87C430.511 365.667 430.895 365.341 431.17 364.93C431.433 364.518 431.569 364.038 431.56 363.55V360.11C431.571 359.621 431.435 359.141 431.17 358.73C430.898 358.319 430.512 357.996 430.06 357.8C429.541 357.57 428.978 357.457 428.41 357.47H425.33C425.302 357.467 425.273 357.47 425.246 357.479C425.219 357.489 425.195 357.504 425.174 357.524C425.154 357.545 425.139 357.569 425.129 357.596C425.12 357.623 425.117 357.652 425.12 357.68V365.98C425.117 366.008 425.12 366.037 425.129 366.064C425.139 366.091 425.154 366.115 425.174 366.136C425.195 366.156 425.219 366.171 425.246 366.181ZM426.892 364.644C426.89 364.635 426.89 364.623 426.89 364.61L426.92 359.09C426.918 359.079 426.919 359.068 426.923 359.057C426.926 359.047 426.932 359.037 426.94 359.03C426.947 359.022 426.957 359.016 426.967 359.013C426.978 359.009 426.989 359.008 427 359.01H428.42C428.496 359.003 428.573 359.004 428.648 359.012C428.72 359.019 428.792 359.033 428.862 359.053C428.897 359.063 428.932 359.075 428.966 359.088C429.139 359.156 429.295 359.262 429.42 359.4C429.664 359.675 429.796 360.032 429.79 360.4V363.3C429.787 363.668 429.652 364.023 429.41 364.3C429.376 364.335 429.34 364.369 429.302 364.4C429.258 364.436 429.212 364.469 429.163 364.498C429.107 364.533 429.047 364.563 428.985 364.588C428.825 364.654 428.653 364.685 428.48 364.68H426.97C426.942 364.68 426.923 364.677 426.912 364.672C426.899 364.666 426.894 364.657 426.892 364.644ZM440.27 358.76C440.27 358.9 440.2 358.97 440.05 358.97H436C435.95 358.97 435.93 358.97 435.93 359.05V361C435.93 361.013 435.93 361.024 435.931 361.033C435.932 361.041 435.934 361.047 435.938 361.052C435.946 361.065 435.964 361.07 436 361.07H438.63C438.659 361.065 438.689 361.067 438.717 361.076L438.73 361.08C438.735 361.082 438.74 361.084 438.744 361.086C438.762 361.095 438.778 361.106 438.793 361.12C438.814 361.14 438.83 361.165 438.84 361.193C438.845 361.205 438.848 361.218 438.849 361.231C438.852 361.247 438.852 361.264 438.85 361.28V362.37C438.854 362.399 438.85 362.429 438.84 362.457C438.83 362.485 438.814 362.51 438.793 362.53C438.771 362.55 438.745 362.566 438.717 362.574C438.689 362.583 438.659 362.585 438.63 362.58H436C435.95 362.58 435.93 362.58 435.93 362.65V364.65C435.93 364.663 435.93 364.674 435.931 364.683L435.933 364.691C435.934 364.695 435.935 364.697 435.936 364.7C435.944 364.714 435.961 364.72 436 364.72H440.05C440.2 364.72 440.27 364.79 440.27 364.93V366C440.27 366.14 440.2 366.21 440.05 366.21H434.37C434.22 366.21 434.15 366.14 434.15 366V357.7C434.15 357.56 434.22 357.49 434.37 357.49H440.05C440.2 357.49 440.27 357.56 440.27 357.7V358.76ZM448 361.68V361.63C448.345 361.482 448.635 361.23 448.83 360.909C449.026 360.588 449.116 360.215 449.09 359.84C449.09 358.24 448.09 357.45 446.09 357.45H443C442.983 357.448 442.966 357.449 442.949 357.451C442.938 357.453 442.927 357.456 442.916 357.459C442.889 357.469 442.865 357.484 442.844 357.504C442.824 357.525 442.809 357.549 442.799 357.576C442.797 357.584 442.794 357.593 442.793 357.601C442.791 357.609 442.79 357.617 442.789 357.625C442.788 357.637 442.789 357.648 442.79 357.66V365.96C442.787 365.988 442.79 366.017 442.799 366.044C442.809 366.071 442.824 366.095 442.844 366.116C442.865 366.136 442.889 366.151 442.916 366.161C442.943 366.17 442.972 366.173 443 366.17H446.18C446.95 366.208 447.712 365.994 448.35 365.56C448.628 365.346 448.848 365.068 448.993 364.748C449.138 364.429 449.202 364.08 449.18 363.73C449.207 363.317 449.109 362.905 448.899 362.548C448.688 362.191 448.375 361.906 448 361.73V361.68ZM444.578 359.003C444.588 358.999 444.599 358.998 444.61 359H446.06C446.392 358.978 446.72 359.082 446.98 359.29C447.089 359.383 447.176 359.5 447.233 359.632C447.245 359.658 447.255 359.686 447.264 359.713C447.276 359.749 447.285 359.785 447.293 359.822C447.308 359.897 447.313 359.973 447.31 360.05C447.317 360.192 447.29 360.334 447.233 360.464C447.176 360.594 447.089 360.709 446.98 360.8C446.715 360.997 446.389 361.093 446.06 361.07H444.61C444.573 361.07 444.553 361.055 444.543 361.039C444.53 361.02 444.53 361 444.53 361V359.08C444.529 359.073 444.529 359.066 444.53 359.059C444.53 359.055 444.531 359.051 444.533 359.047C444.535 359.041 444.537 359.036 444.541 359.03C444.543 359.027 444.546 359.023 444.55 359.02C444.554 359.016 444.558 359.012 444.563 359.009C444.567 359.007 444.572 359.004 444.578 359.003ZM447.07 364.41C446.816 364.614 446.495 364.717 446.17 364.7H444.61C444.578 364.7 444.558 364.689 444.547 364.675C444.53 364.655 444.53 364.63 444.53 364.63V362.58C444.53 362.51 444.56 362.51 444.61 362.51H446.15C446.484 362.489 446.813 362.596 447.07 362.81C447.18 362.909 447.267 363.031 447.324 363.168C447.381 363.305 447.407 363.452 447.4 363.6C447.41 363.751 447.385 363.903 447.328 364.043C447.271 364.183 447.183 364.309 447.07 364.41ZM456.7 366.19C456.691 366.19 456.682 366.19 456.674 366.189C456.662 366.189 456.65 366.187 456.638 366.185C456.624 366.182 456.61 366.178 456.597 366.173C456.58 366.167 456.562 366.159 456.546 366.149C456.5 366.12 456.463 366.079 456.44 366.03L454.9 362.64C454.892 362.622 454.88 362.607 454.864 362.597C454.848 362.586 454.829 362.58 454.81 362.58H453.66C453.643 362.58 453.63 362.58 453.619 362.583C453.599 362.588 453.59 362.604 453.59 362.65V366C453.593 366.028 453.59 366.057 453.58 366.084C453.575 366.1 453.567 366.115 453.558 366.129L453.55 366.14C453.545 366.145 453.541 366.151 453.536 366.156C453.515 366.176 453.491 366.191 453.464 366.2L453.458 366.203L453.446 366.206L453.434 366.208C453.416 366.211 453.398 366.212 453.38 366.21H452C451.972 366.213 451.943 366.21 451.916 366.2C451.889 366.191 451.865 366.176 451.844 366.156C451.824 366.135 451.809 366.111 451.799 366.084C451.79 366.057 451.787 366.028 451.79 366V357.69C451.79 357.54 451.86 357.47 452 357.47H455.53C456.021 357.461 456.507 357.578 456.94 357.81C457.341 358.016 457.671 358.336 457.89 358.73C458.118 359.15 458.235 359.622 458.23 360.1C458.243 360.62 458.092 361.13 457.8 361.56C457.514 361.97 457.098 362.273 456.62 362.42V362.47V362.52L458.28 365.96C458.281 365.965 458.282 365.97 458.283 365.975L458.285 365.986L458.287 365.999C458.287 366.009 458.287 366.02 458.287 366.03C458.286 366.043 458.284 366.057 458.28 366.07C458.28 366.076 458.28 366.083 458.28 366.089C458.279 366.093 458.279 366.098 458.277 366.102C458.276 366.107 458.275 366.111 458.274 366.115C458.272 366.119 458.271 366.123 458.269 366.127C458.26 366.144 458.246 366.159 458.23 366.17C458.198 366.181 458.165 366.185 458.132 366.18L458.119 366.178L458.11 366.176C458.103 366.174 458.097 366.172 458.09 366.17L456.7 366.19ZM453.7 358.97C453.65 358.97 453.63 358.97 453.63 359.05V361.14C453.63 361.161 453.63 361.179 453.635 361.192C453.64 361.204 453.649 361.212 453.667 361.217C453.671 361.218 453.676 361.219 453.682 361.219C453.687 361.22 453.693 361.22 453.7 361.22H455.34C455.655 361.234 455.962 361.126 456.2 360.92C456.308 360.815 456.394 360.689 456.453 360.55C456.485 360.473 456.509 360.393 456.524 360.312C456.536 360.245 456.542 360.178 456.542 360.11C456.542 359.959 456.512 359.809 456.453 359.67C456.394 359.531 456.308 359.405 456.2 359.3C456.086 359.19 455.952 359.104 455.804 359.047C455.656 358.99 455.498 358.964 455.34 358.97H453.7ZM462.2 365.93C462.734 366.206 463.329 366.344 463.93 366.33C464.533 366.344 465.131 366.21 465.67 365.94C466.16 365.687 466.566 365.298 466.84 364.82C467.119 364.312 467.261 363.74 467.25 363.16V360.5C467.26 359.927 467.118 359.361 466.84 358.86C466.564 358.391 466.158 358.012 465.67 357.77C465.129 357.509 464.536 357.374 463.935 357.374C463.334 357.374 462.741 357.509 462.2 357.77C461.715 358.012 461.312 358.391 461.04 358.86C460.755 359.359 460.609 359.925 460.62 360.5V363.16C460.608 363.741 460.753 364.315 461.04 364.82C461.319 365.289 461.72 365.672 462.2 365.93ZM464.536 364.717C464.343 364.793 464.137 364.828 463.93 364.82C463.723 364.827 463.517 364.792 463.324 364.716C463.132 364.641 462.957 364.526 462.81 364.38C462.527 364.062 462.38 363.645 462.4 363.22V360.48C462.381 360.055 462.528 359.639 462.81 359.32C462.955 359.171 463.129 359.053 463.322 358.976C463.515 358.898 463.722 358.862 463.93 358.87C464.138 358.859 464.346 358.894 464.54 358.972C464.733 359.05 464.907 359.168 465.05 359.32C465.197 359.474 465.31 359.656 465.384 359.856C465.436 359.996 465.468 360.142 465.478 360.29C465.48 360.322 465.482 360.355 465.482 360.387C465.482 360.418 465.482 360.449 465.48 360.48V363.22C465.492 363.433 465.46 363.645 465.386 363.845C465.312 364.044 465.198 364.227 465.05 364.38C464.904 364.527 464.729 364.642 464.536 364.717ZM473.07 366.29C472.479 366.305 471.892 366.178 471.36 365.92C470.887 365.684 470.488 365.32 470.21 364.87C469.935 364.393 469.797 363.85 469.81 363.3V357.68C469.807 357.652 469.81 357.623 469.819 357.596C469.829 357.569 469.844 357.545 469.865 357.524C469.885 357.504 469.909 357.489 469.936 357.479C469.963 357.47 469.992 357.467 470.02 357.47H471.37C471.398 357.467 471.427 357.47 471.454 357.479C471.468 357.484 471.481 357.491 471.493 357.498C471.505 357.506 471.516 357.515 471.526 357.524C471.546 357.545 471.561 357.569 471.571 357.596C471.575 357.61 471.579 357.624 471.58 357.639C471.582 357.653 471.582 357.666 471.58 357.68V363.31C471.566 363.508 471.596 363.707 471.666 363.893C471.736 364.079 471.846 364.247 471.988 364.387C472.129 364.527 472.299 364.634 472.486 364.702C472.673 364.77 472.872 364.796 473.07 364.78C473.267 364.793 473.464 364.764 473.649 364.695C473.834 364.626 474.002 364.518 474.142 364.379C474.282 364.24 474.391 364.073 474.461 363.889C474.531 363.704 474.562 363.507 474.55 363.31V357.68C474.549 357.666 474.548 357.652 474.55 357.638C474.55 357.633 474.551 357.628 474.552 357.623C474.553 357.618 474.554 357.613 474.556 357.608L474.559 357.596C474.569 357.569 474.584 357.545 474.604 357.524C474.625 357.504 474.649 357.489 474.676 357.479C474.703 357.47 474.732 357.467 474.76 357.47H476.11C476.138 357.467 476.167 357.47 476.194 357.479C476.209 357.485 476.223 357.492 476.235 357.5C476.246 357.507 476.256 357.515 476.266 357.524C476.286 357.545 476.301 357.569 476.311 357.596C476.32 357.623 476.323 357.652 476.32 357.68V363.3C476.333 363.851 476.191 364.395 475.91 364.87C475.637 365.324 475.237 365.689 474.76 365.92C474.235 366.178 473.655 366.305 473.07 366.29ZM478.804 366.203C478.83 366.203 478.856 366.199 478.88 366.19L480.32 366.15C480.375 366.156 480.43 366.144 480.479 366.117C480.527 366.091 480.566 366.05 480.59 366L482.2 363.26C482.2 363.253 482.202 363.246 482.204 363.24C482.207 363.234 482.21 363.229 482.215 363.225C482.224 363.215 482.237 363.21 482.25 363.21C482.263 363.21 482.276 363.215 482.285 363.225C482.295 363.234 482.3 363.247 482.3 363.26L483.9 366.04C483.922 366.089 483.96 366.129 484.006 366.156C484.053 366.183 484.106 366.195 484.16 366.19H485.61C485.655 366.206 485.705 366.206 485.75 366.19C485.766 366.179 485.78 366.164 485.789 366.147C485.794 366.137 485.797 366.126 485.799 366.115C485.8 366.106 485.801 366.098 485.8 366.09C485.806 366.068 485.808 366.045 485.807 366.023C485.806 366.008 485.804 365.994 485.8 365.98L483.41 361.92C483.4 361.887 483.4 361.853 483.41 361.82L485.8 357.76C485.807 357.72 485.807 357.68 485.8 357.64C485.799 357.63 485.798 357.62 485.795 357.61C485.793 357.601 485.79 357.593 485.785 357.585C485.777 357.568 485.765 357.552 485.75 357.54C485.704 357.529 485.656 357.529 485.61 357.54H484.16C484.106 357.535 484.053 357.547 484.006 357.574C483.96 357.601 483.922 357.641 483.9 357.69L482.3 360.48C482.3 360.493 482.295 360.506 482.285 360.515C482.276 360.525 482.263 360.53 482.25 360.53C482.237 360.53 482.224 360.525 482.215 360.515C482.205 360.506 482.2 360.493 482.2 360.48L480.6 357.69C480.576 357.642 480.539 357.602 480.493 357.576C480.447 357.549 480.393 357.536 480.34 357.54H478.88C478.834 357.527 478.786 357.527 478.74 357.54C478.732 357.545 478.725 357.551 478.719 357.557C478.712 357.565 478.706 357.574 478.701 357.583C478.696 357.594 478.693 357.605 478.691 357.617C478.69 357.625 478.689 357.632 478.69 357.64C478.678 357.679 478.678 357.721 478.69 357.76L481.08 361.82V361.92L478.69 365.98C478.676 366.015 478.676 366.055 478.69 366.09C478.69 366.19 478.74 366.19 478.74 366.19C478.761 366.198 478.783 366.202 478.804 366.203Z" fill="#404652"/>
</svg>
